<mxfile host="65bd71144e">
    <diagram id="m1cJ2fwfLGUp5eYE2Kwt" name="Page-1">
        <mxGraphModel dx="787" dy="732" grid="1" gridSize="10" guides="1" tooltips="1" connect="1" arrows="1" fold="1" page="1" pageScale="1" pageWidth="850" pageHeight="1100" background="#ffffff" math="0" shadow="0">
            <root>
                <mxCell id="0"/>
                <mxCell id="1" parent="0"/>
                <mxCell id="6" value="" style="rounded=0;whiteSpace=wrap;html=1;fillColor=#e0dee3;" parent="1" vertex="1">
                    <mxGeometry x="140" y="180" width="540" height="330" as="geometry"/>
                </mxCell>
                <mxCell id="7" value="&lt;font color=&quot;#180101&quot;&gt;k8s クラスター&lt;/font&gt;" style="text;html=1;strokeColor=none;fillColor=none;align=center;verticalAlign=middle;whiteSpace=wrap;rounded=0;" parent="1" vertex="1">
                    <mxGeometry x="140" y="180" width="110" height="30" as="geometry"/>
                </mxCell>
                <mxCell id="8" value="" style="rounded=0;whiteSpace=wrap;html=1;fontColor=#180101;fillColor=none;strokeColor=#3333FF;" parent="1" vertex="1">
                    <mxGeometry x="160" y="230" width="140" height="230" as="geometry"/>
                </mxCell>
                <mxCell id="9" value="" style="rounded=0;whiteSpace=wrap;html=1;fontColor=#180101;fillColor=none;strokeColor=#3333FF;" parent="1" vertex="1">
                    <mxGeometry x="340" y="230" width="140" height="230" as="geometry"/>
                </mxCell>
                <mxCell id="10" value="" style="rounded=0;whiteSpace=wrap;html=1;fontColor=#180101;fillColor=none;strokeColor=#3333FF;" parent="1" vertex="1">
                    <mxGeometry x="520" y="230" width="140.46" height="230" as="geometry"/>
                </mxCell>
                <mxCell id="11" value="" style="shape=image;verticalLabelPosition=bottom;labelBackgroundColor=default;verticalAlign=top;aspect=fixed;imageAspect=0;image=data:image/png,iVBORw0KGgoAAAANSUhEUgAAAPwAAAEACAYAAACXjBuxAAAABGdBTUEAALGPC/xhBQAAACBjSFJNAAB6JgAAgIQAAPoAAACA6AAAdTAAAOpgAAA6mAAAF3CculE8AAAAB3RJTUUH5QYCCRIHRlXDRQAAAAZiS0dEAAAAAAAA+UO7fwAAMJlJREFUeNrtfQecFFXyP7vLEnZRZvo1WZJkJRgAs6Sd7gbjmfFn5jwRPRUx/swJPc+cczqznnoqplM8DJizYmC6x0QwIqIgwf39v9X9uP+6TOiZeT3bPVPv86nPzk7o7levvq/q1atX1aoVt0i31NhYVcoUtSlL1NmWHrNNXU9aeg8i/N8b1L8JDXYsYToT9X0dU+xum2KTZp/3w3u9mvxeo2vi2u1SiVgNc5sbt9KCuxrgW882tQ1sSwwFKLcCIHd0LH0K6FS8vgGAfwjvv0eE/xeC/i8PWgX6osnv7wRdh2tPx0SwDyiB97dM0kSBZ0hN1Ot5VLhxUwnyRAwaWwwHwHcCHQ4AzsTfu/F3LoEzT0AXSytBKdDb8hnOAR2MScbAMw6lZ+UR48YtH4Bbsba2pfVPeib3GQAWadnnJdB+KzHA/dAvoE9As91nxTO7z44+UF94RLlxS6vJ4wOhKY8G3QHwvCIBvjyEAM9Fy+Wzv+L2xRQHQPP35xHmxiBPxDoDEAdCMz4iQfKTXEf/X5kQ9eV7kOP2EX2lPvPIc6sMgJuiHYS+u2OJPwEED4GWgH4HNZYRyDNRo+zrEnf9b4gJMP27EU9YMriVD8jHxqph2naCkI8E0GdAyF+rAHD7IuIF8YR4A+qCNX9rlhhuUXW+VTuW1sN2nW/6lRDw+aA1DPR1aI3kzQ0A/WTiGfGOJYhblMDeEcJ7EIT4ftBXDHTftNDjmTiIeMiSxC3sQF8PwronhPZh0AIGcMG0wOOh2JN4ypLFLWxAb2dbmgUhnQX6RjqnGLjF0e+Sl7OIt8RjljRuLdqShgDQxcYQyntAyyrE294S3n3a3nvANsRo4jlLHrdSa/TapKVToMxxAPx3DMpSEXhtiuOSpuhHY8CSyC3wBsHr4h4ksfTnyixIJiq0Evx/Qo5BF5ZIbsFo9USstWOIURCya6TnndfpLbu+pzG4wTG1LWhsWEK5qdTqNaCpoDdBKxhwIdL27sk9d2z4vD43Jet1SihxuYwJZ5CFk76nMaKxYonlVphWN/W2SVOMxVpxLq/VI3JQB2Pljpmht6NMQCzF3HJrdAiKbQgBwB/hnfJiMEWMHIzddCeh9cTankN0uWV1zFU5hrYhNMWl8iQbAyiatARjeJNjxAfSmLJkc0vbkt6prYfYhC+Xs/jiIRpTlmxu6Tzx40AvMlDKjmhMx7GEc2sCdjchxTu8t162e/bv0BizpFe2c66V06B1sE19BgRiMcfBl308/mIaaxpzGntulQb2hIh5sfC8v16izLafg+aBPpA0T6bZLmWizu9pzGnsGfQV1JwJrmYnsPPBl2Az2SwCPQVen4e/O9imGJGy9MFEtuFWvdkFn13ofqd04crfuaCHDDASKkO7t5Fm/A8MykA1+mNYN0+xLa1Xysq8NYbPahxL9MJk8D+gR+Vvg36+H0gGSBYYEeUN9rYY6GNlYgUGZlBmsyXOSlpicD5JKSnZZ9IUAwH6mTK3QNDP+Q3JAskEI6O8wb6AHXTBFaEA0I+wTa3gfHT4bRzXOK5EjrwFDPry3HZrjYE9Ump2BnswtNpNTmGJohNT4BpYdonzSpD8s3Gtpnca4nWMlLIAu95GJpb8jEEZYI55S38UpKyaLK7VBfRMiZ4fsiH2xiTDmj7KDZqCzrFPkOfYGZhBroctMSabcy7vJZgVw9iJnUu4bfo+7pcgmWHkRHX7zdKHYiBfYEAGTvdS2Sjl1pmp9QII7ythP15wDG0AIyeaTjqq4/YIg7Ek59APTxpC+RZXKhGrBeCPKmlwjikexH27MYKitnY39ZkhradedufPod0nBLYsM8WuMiKvVP35DbJzCSkMRlEU1u0GrdvFVN5rLxn9BzQ8QKfrlqDXW8AncTiv58NuxpOjxxRjMGDvMRBLRrNBwwIEPGUKfqUF+vURAG+QTDGywrvfviHoAS7euDYBhOvhpkMrH4E+9DzR+ssSpE3pA/m5LS2jX/OIVwgW8KbYrIXyFKzBvR8C9WdkhXO/PQY6DfRTBYL7N3lQhWrPP4hJ71r8PRVr0akQWIpBaACNB43FZ8NSlt63KcnPxictfVfQFAqgwW//hvfukhOEncUf8gK+v0mAgN8a93ijhfhKIb5nkmwxwsJkyidiNY4pdsDAfFlhiR3eBiCuB4inAag74X+qvdYH/Ci61HJqbKwWk0F3XHNzmLYJ3ONQvL40zb74PNx7u8B8MpY+CfdItiCfv3QsfXfwgktbhcgjr4Oer4zCC+ItAPByAH1HgGEj29Q6AeCBn/qigzC4rwY+z2p2jHUF3tsPE4TytS6uSSHRf5UFJ1qypt0bTkLrw0gLh6OuCoMys4zX7au9ZYp4FCC3bEPrAuDVORPiLZKCGfc+O02Sz2vxvh7AvXrg2v8IhTVliis57XUo1u7ayDLNMkuOs/lJU1wMc3JIiLY9R6U5vvojhdYCoFUKwU7bq7uEyCez2jG0MYy4lhQ+S3SGWftEeZ6AE/MwmW2lMj5doSPt5TTPe4+d0DqquD6ln4Il0w3XfDhMefFI1kjmGHktYcrT+s4SR5dxwYhf6JRfGIM/sK7eO41VRRFqf1WRRSY1zs1dcHrLr93XoZ9oB4NkjxFYeqEbIfdnyze1tCnmOg1ap7Dx3jFEJzxfOifpwqSpTykG9F6iErFfSCfyRsjd63g+Lm5RYkddHZhO+6M/lwGwF2XZ4yZH5GHh85u45bN3SBO+TEurFEBxDMaoQwHjuj5+e0rIa/qtgOV1qYqtT27+hILW7mNk4Yiort0b3RNgprjdNsSWEKBnM1oqpvgEfe4ePi0f74hnOyPNSbZGWdvtPtBWsFDapxLpdxRoLB1Lq8b3a21T2xzfvx+vl0ZgXG2s53dIWTrXrSuBV74jAHJhxANmKFjliLVaMGmI0Vmy6K7EBHcJhCt02VjwXD3xfDfKHYV0kxXt0c9yTG0yXg9Gn3tj7MgZ1x2v++C9jRxL7IHvPhTBCMmbHEvvyogMVrtXQVi2BbM/jfCe+px0tc4AgMuz/C5FmXtCulNCoblX51hzY+0rfpSZhx4DzZJRgksjPHEvoAw5vDcfrHbvACZfEOFEEfcCIJumNZEtra883JI2Vh4Twk2wBEQ4J2K9C/r2vyFfewexdXoJliLrMzKDWjda2nBZoSR6QTSmuBXr3gGZ6pXjc8rU+pcsOdk/h4DtEWZHapIqyVjiqRLllQ8DfUUyycgMzny8LIJCsZROnjmG1iub+ecGm5iuefxIZo+9uJvyvIV3q1SrBvXDc+4lgb+83EFPMsnIDEKDjIuvX6IyRGqPV5r6350GTQOgq3xMaDV0RDWLFfOTbYj9wYvWIZ+YKShKOKa2BR1ZTpricfz/tQzWaULiC3z2T0wS0/DdkZRaKoJbrb+EcRelDNbv7ln3KAnCCjLjIQx5naWm/V387uIsUWa0hTeQtrR8Xq82ZWr1+I0A6UQAWVeitf/TZylLtKfvlsD0Xw9Un8HKaSdzES6LmJa/ihGqVmN0Agg+ilgVln8AQAVt2+C3tE33aub9aDHdtrS00WzOuHgt+NUH36FDLglc62DHFBSmejvobkmPS1r7/22OpZ9A38XvLNBougaA2b4FfAExNz7B29GISkQkpcPqxEhVBnh9inciKzIC8EShYJearhbXOCHLVtc8AHSjJiCh2POhoD1BJ3lZb1yP/08FORi9lFiUOedM0L5umedErGSlmIh3EUsx/iPJKCNVzYxP5uh9EZrx34O5vGXSEEVOcm5wyqws5/wvxnfqQZQR5nyZW+5rxWcLGmX47BwA/yrQrnbC9UcEvc1HRUQ2bYFstcXEV9yXaanCLT/zdhyY+XF0gjH0fWiLTZHXO5HFUfm9BHmyRN7wVV6cvOt9nwzQB2ruu+G2lr5bhPb2PyZZZcQWo+WgJaFVTomIE2cZBvwkOyGUzfJu5RVT3BjC0ODv8Vz/xl8Tf6uKtWYygr5Bq5dLm2URcdKeA4uLgVsw4E0x2C5dBdFitd+tFHGmmgdOg9YDghTW5Jy/erEBYqRjaG2DMPUx6cVxn+tCeDY+Hc0B4Ecwcgtfx+4q86qH/eTbexD6QDK3Akid5AGVMPPgA/R/Cia8QDzVlI1XrufDfopuAZTUnozcwsz5Onn8MuzOup/xnKeSZz0AHpB2PyciZbPoIMzldJhGuZYf6xaVPCYCJ+poO/YMkl1GcP7m/ADby1cXbu1u6k9igLsGoNUoo8/NEYsupKXNPQDnNgF47oWMGQi7lv8XQN+PEZy3wIvtQGE/KPO7bWrbB9D3reVktyKaufMpGlBsrZwvCW0YwBRyB574PIgJr9z33ikWe/+w55qH+foEPatisFMttecinnp7ldcHsZli075aWj1h7vsaxxSHlaI4SBntvWsCM/ltIY+m+8axtFEK4w2qKaQ1QsEmfgh9cVN4KUsS4SS0IcT7kGv5O0iGGcn+1++9Qx5sQ3vRlGarg8I+95PZcMrtCOnrsIQGK/RtdJC8D3O2YkrkOSDoiMQyMefdsMrtQz6Dfwkts72fI68+95rpwMg1ZXxu/E6Mq5ICDsRz23B9HJ+Fus+G2NFOaJzkMqfJ5pm2x0fAZOuuSIAp0830Ms8SQ9tV56koUiH9HHSk96qQ9/lsaHnOd+fDtK0BPRjigfwOdAC0shJnHczdnWVSzsYyBrybDkpVUErKitVgAqHqNwvD69DVnwHVMKJzO69ah9wpMxsgHaZo+dJTZnFdU+ZgX+v3eDppiP6KgpIG4XpPhtip+x3JMiM6l0lvxfuH/IDEGSqqpGJJUAuT74QI5mMvbo/eFBc5DVq9AsBTyvITwpwSi2SZEZ3bpN8jxAI7H2DfUYnjydS2hcC+WVlpnb18Aej3BJjl1QqsQTo6/WFozXozvFmGw2PSW/o5IQ6jfQaapbsCQaW8dedFKo2T0mQR4krbKr5Ipru74ZWUDusW3d8Y0TnBoN8f0sGjWnAXK/IyD/M0XcWBfe0uByXS2FrFtiaudXZozxuY4nlGdG4N/0FIBXUxzPndFXjl28q69isrF/Cuk/JcUNGnymA2WzLTUCiXgIzo7CZazxAP3kKsu3dQoJG6gD6uYLCv1fLziRcKnHd1MulmKGUmZemDGNmZt6k2J00a4LbQL97ZcvFa0tLvkuftT8Tr67GUeEomgfwpw8EV2iefj+/tTR72gnchDG2nCthz9+UTgXb+i5pYBv2mkK7jF0OmRzKyMzuz9gwgHXWjTM7wMoA6g7ZKMnmI8X43mNx7QYDuxfcXZdgfp6qnFjRLbYF9vJvB/t/Thk8qkpu/htQBSmnGD2BkZ16/H6l4X/V3N6srecRNfePU2FiNP41BoZtiCmhO2jPppv6sbYiN8nU6UcFFWfqZAe85tX5SkRYLE/nYkPpESJanM7Izm2YXKE65/CGAuXcqEcu7pC/A3DrpVYB5OI2JT7HhM/F5hzwFc/uIn3NXvkXnWPpuCnw/IqTJQlZApi9hZGcG/CUKB24BQDmJgFukV30w6LF06zMIa155yDFBnFUhYbS+LTBVgEh6lXbCuBvxT0Z2ZpP+MSUOLVOscAztSGdCXM3pLEOjMk6pNJFUd+UZY3AvO+zWPS+vCPD/CWn/nmVkZwb8s4rW7XeBusLUU7N7YIgaaPOD0ziGVjpWvI/PHYjWIY4xaElKphLxojPdYpK/lgEfpS05L1/Zc0qSCJrCouspXm5sgOs/v24SS3G0r+04S4zE979ggK9DX2Iy3UKBsghrSPZs1XkPywPwhpvU4GVFySl6BBAj0BaCOa3ZGrwRE8GTPjXQbgHGGESZvqVadX/g9USdqGs+hHGfEdL+vZqy1CRLKbegm4FgzlvFp0gWJ2JGrQ3iGSmtVZpKODBJY5oPDTRZCjeDfN3y1A/LUNumdEeeFNY1/Fsk24zwYAD/bTLAQAdcf2gawfoiZYohDHgmBnzpAU8le83gtg1FH9yjefqthXh/jI8tuRkVluyCiQEfOODp99sG9YxYw3eSlUyb57jbx4fT79yIlY1iYsCHHvAUfDE+MA1vig3kll/Tey6yTc3yAfhTwpyOiYkBH0XALwaw9gtwDb9Rmq3DL/Hsw3z8ltfwDHhuigFPcfjHBeal94o8ftLsnrafIgsM+CyJQT1H6K1p6F4Z++CHPmTAV+Q+vH5L0lJfvjmViNXapjhknVNZpj6b9+GLou9BUwGKLs3J8dJ4D/dDWG79b1hDh1OG1ocRHliknf5+UkHkVhoPPQV3/HPdxJZips9Iu8050i5jgYoxxVtf+pkh7d/zXEk286CpiKWnSLgrAVChqpifY8UpB/qOaY62rkwl4kN9TWjj4+vh+/MY4OsWXoQ230iB7FzMsfTRA/yjalIViR9dEzqhVSt6rp7QQm+kKSf0rzx9AI/yabl16E01FhiflotcU3we/iMAbCsFpnw3XCtdrfolmAQm5bmtdx6fh29++Ei/UZHsvB3S8/APMrJLA3iilwD67WDa1xao2Wnn4IoMWXhupoISeS0NMEFwxpt1MgcVHQqdsmLrhTSKkTPe5ADYMYqDU2iGfRVa5M9YJ+p5CFBb29TG4LdUFCNdGefX8PlWqUR+R3Dx/Y6YgNhT3/SwU4NW/Fl4QyOH6G8h7N8vmNBOZGRnBvwBMtOnarNqsfQP7J6amLn4AQHYMeKjAcpr3OSX6YXIgZk/GYBvW1AfTXEvA/2/GYNe8ptYNIfcHBxSy4msjoMZ2ZmDb4LMS7/GtR5MkQKgr8fr4/F3L9xzBzdbrqmfR/nq5YSzMkO66y8hpIcC8AVvs+D3U9hxtzaXgDhW0VLw5pDmpf82aYjtGNmZAT/QrfAS0gARCOiUorWRKbqBvuIU1WKxk9CKLqdMe9whjrKjyjODGdnZzbOwlmFaAO08UUH/6mQ6pgr31ovrMIGuV3SMhKFtEeKApi+wZGnHqM6+V/1USAfvF6pUWrRGotrwhtgCGu6zCgb8YmU14i1xWohPIc5lROfWgOeHds/YEo9QTfKitZKpCVzrigoGPNX1KzrvICaMesr7boe1PrwpLmNE53Zq7R5iQf0IgzhegaBW216Z408qEOw2Jrs/Udru4v0h7nbcmyGuncce+pzaLxEfEWJhXeYlydSriu5ng1YP0F8Y0v3j4PbdTXGlY8XjCpx1VbapH2WrLz6qjBwjvgkjOrdJ31pmMg2r0D7iWHpfJdaMIfrhek+H1iRVX677VdCWShSDEd9ABkaFORsv56P3sadak/RAENrCCdDye8Asr1HU3wNCvBWpkr6BRj5cyfYtOT5NsbMd4kq8GNfnSJYZ0blmbkunc/GnhFx4rwbodSXCa8U6QHjPLfMYe4qZvw5meFzJJGmK9SXPVod42/FSPGM1IzoXAAxR5Zi6EXIBnocB3VRhwFEnGfpbroB/yTaLD7JpshVHWW7eDnefxT62pVUxonOba1RldWDIzVxoY3FC0hLtFfouhtvhLHlc5NaU/jX4pCwDEfGceB9yi2ghtPsQWG8MaJ/CTxrvgQiEhm6srM8NWo1tiEkAyBdlEmvf6PbFEDs5DaJGoXbvCXJCPsnNgnx0YST733Jp45jisAgI/i0qq9TSyTEJ+g8jHnq7xu0D+qLiNFwT/lRDw58X9onOsfRjsEzjkNr8girEWMzk34Rcyy+DUG+sdLIbG2ttGzpluH09oo48Avt71Afqi1KZAK9DLxP0fJBdRnD+a7VBdri359Yemb2NElsoBn1t0hTjce1/hdsTnfYI8n8A+J0LzTKUZTejDkC6PgJW39Mku4zgvGdzbX0w7+8REHJKmPnngHwZQwCe66ITjSfug7CPDCg+Y3JE4hX+TrLLCC4guALCs7sX6BL6CLJXQKMCEXS3np24LfxBNeJM29T6BjLxmdpwWZ0m7H6N7yiQimSXEVyIsBuRMOu9ElemuJiSKarX8iIG+jTEk91LoAmOodVhaaN+4h8Xb2t72X6XR0AO5mJyGsXILc55d47iTLZB0Q8wv6fiedsotHKqZURZCHMD6O/C+pgaxCTXZOzbQGMeEpESXeRruQxjxlVminTe7SgTSkbBafU+tLGJZ1bincZacDjt92cB3YsSDKU6fEN14F4FCM9OWXq/gK27GvS9IULBSEmSVUZs0d5ZNwjnyeicKBPPwLwdUqx5i35rtleLPoOXXtzrmFov202KKajS6jsBmb3kMPwAdA8E+ijHiA+io6kBx2FQ6qrB6NvjEToJ+CTJKiNWzTr2WDB0aUQGn8Ju70yNixUVdovlwUFZTNmvAL7RTawgAfN6O/xmGuha6URcVty5fzdWnZyFM6DRx+H6XVQGGWVft8faA+w3RSgOYamtKAMvt1ZuUozeEau8ugLAO7/QBIa2qQ2RzspMXukLQO3TrPlrYAp3AliGQgBpH39/mTDzFgD2haRXWTcdUdaYW+i7jqmTxZDAJLIJqDsV5Sjx7kw74l2RE1bJk1WSjDJSFTqvIHxXRyzibEkhoKeAFQD2pCwC/yE+38xP1p2Um0xEdMBv4gB8VwC7RwbqTt+h76YMURvktlKVpCz77Se7DtAoFdSAbJbK+qmgtXysa8gz4aStPAIBPgNAqvO5bqeJzciSqnsFrjUNvGgT7rHSaxzaTjRFT8fSd8JzX4IJhxJCvOXu2bvVe/RX8d6/8Xom1utj8d0+6Nv0iHjk/zAm6O8IRmgw2zS3RjC2nIpOTIdw67k0J8zprhkq1crTZ4JOYQ0OMdCrAHCqtks7K9fKU21rfG1pme5EsDRq44uJ6z5GZlBreUsfI7eGogb67yDQM52E6Ezn/TOs21sDzJOzJGVcRB55lafPFC+7sBTRt5cT1qIKScr5PckkIzMwb70es706YlEUjp8A2JtTiViP9I5JjUpQvZo5qEM8gEmhW0iXWx0A9kPDnDI6ICJZ5CwXQa4NwWDK574gwrnd7k8aYqN1nVXi1Cwn477C73YJ5ZgkYnE82xl4xq99nGQjn8YHSW9f/5eIg51k0EpxosrAzfouYPSNERaUVV59eX1ik4lsqHRmpZ0kAJA7MEm0CyHYO8LqOF161RszlIR+kyYzxxLb4f/+6EsvIrwegPfG4TMKHX4vguN4I8kiIzJ4LU9bN5MiFG6bJfZenOVYWl+A/+EskYRUgXRY6JZXDVo7PP80WQN93cNEFPZrajs5Vrw9QF2VLr8bvUef4TtUlGMvGTC0IhKOWFOn6jkMyBKBXoDpV0VEOLJXYrHEm9mKIQIQp4WN/7A2qt3IPkv/LE1CEHIuXorv9CpgXHtQZRrXyRnq6jn6TehfV0ZiKYXOEtsCLG+XScLHjOmwYQH0Chvv7YSmgfd3pQ0xNfUjYeprRTgA18c1jgtpWC1kTbyHyW4cI7D0nmEyKc8Kcang4tf6pqDjtrWhA7wpJqZ1upliporjoalxMToDf10Ix+RnkjmSPUZgSwieW5vNNYnLT8ub4hP0b1imffuW3R4Vs9I8M50SVLJt6J6WM8UAmeUmTNqdEotuwMhrKS0/NlbteFFdq8tQwy+HgL2Mv4ejn3Wh4Xki1sc9J/DHyWkFJqddnIRWrW5S0ek8/J4hyue3mmSNUdfyDjzKfXdjma7lG2Vo6iKA/1xo0BEAQdwx421aqqqJPNjTfH19D6i7amsE19wwJCW4GrFuv1dFmXBuCho0S18I4kcVENlFW3kPAfx/AW1jm3rf1ES9voTanY6uPt5sC5F2Gg7FBFSrfjLHWt7Sj29xB54pPnUsbSgjLTzbRG0wA+8f0Tj7wuPzPe13KgSSsvtujXVv/5QVV5YiGZMJnXrrBd6Odu9hujXdmsfJ25gExgdnUehUFvrzloyXhwX5Z1BbRlq4QN8FAnl1GezNF5Je6VsZx/4Y6AZKZJG09IOheXcGT8YAtEMA3g0ldW2mtTu771t6f6xRR+G3DfjtfvgtadaLQA9SHjt5j3TBQXMBhs2CcxDqW4PeaLlEJuJqki1GWPgceFXQcJtikGZXGOAzZVAlTTxf5qMj598cSXQG/Z9N6Bn5PiXEfMsrhe3GxfvNOEP8HhachhebyWdrCT7OJpniPPPhdeDVYpD2cs1MBn3JQBEo4D2r45UW6BfJ0F4kU4ysEDfazpFpkpYwGEtCZB2MCHA8t3QPG5U8wEanQz18Ei4i5j1F4d0W8ZLLUSGbCl8G5pux3Ki++aWtfivuTlkxPuceKdAn3Bx4cxiQgdOvtiUOBL9bKx9DK9YamvawEodPz4EZ34cRFEXPPe1VW/qnDMrA96mvt01NeREGTCQ0ad9Uwr58SjLDyIku4GtBlCfOYWAGCvjPbUOMVOnNduvqGWJcCffgHZIVkhlGTpSdeAmtHmbh0VHLdR61WACs4+8BKYv5pxBiygFYohJjP7gyAllhxETfgdfKmaDVyRhw9twH6OyCdjwCa/miPdvkD8DkMb1Eh6KWUW17kpEwnkzkVrgQCarhniElE5Ma0/4bx9B2TFl6wZoev63HNXbDtUqR5JIyCV9MssEIKU/Q6xL0vzJAAzrdZwrHsfSpeJ13Cig6a47fHo1rLCzJ7oIHdk5MVwGa/hLvlBeDNCD6xovpFxNh5udcF+M7Hd24f6+IxY+lyUsnLmHNXiHNMeJ00OZSBn3g6bg/AZBvodLXKVMMp3x1TfbYYyk6+2DqdNT3Dhlcs6pEYL+UZICRUDlavgoD3oNBXzLgfyPjISjp6OuS3pFZb78t4Xn3tWDvQTLASKg80HeGAFwkI7kaGZxl7FvwElBeRGPOYK/sbbs2MCuPksE5DPryBLtDY6wioy638gB926Qp9pVnwRkkZZbbn8aWxpglnVtzb/EulMGFQVI29DyNKUs2t/T7wKZWDdoKa707Q1r5hMl3EQ/9UYB9S1A1Sza3bM68asfQekJgLnRLJzF4okZLMWFfjol7YNIQnMCCm681fSvb0NtDcA6U+8O/M5AikczzE9DeGLf2KYs98dwKAb+lD4IAzSrjGnblQLTlNovGiiWWW9HNGR9fL2mKc2RNek6bFaITejQmNDY0Riyp3FQ69OpAf4ImuZ+P2YaCltmWeBRjsgeNDUsotyDW9tVJQ/S1TX06gD+fA3Vaaq0uPky6NeTFIMp7x5LJLdAG0NfbhtgCwncVA7DkdKVtaKNoDFgSuZVS21dB+Oq9I6DuoZCVrPEDC41d5fHYTVldz5VguLW0J7+jY4kj5QkwPoij8sAL8dQUx0Gj89l1biEz9S0xAFrodFkLbTmDtmBa7vFQnE48ZcniFnbgbyyBP6dEGVzKCegvS6BvzJLELUqgp5z4m0CADwU9wskzcyWT1GcB6MeAZ5tzbnhuUV7ft8UatDeEeZKbZ90Uyxjga0ksdr3u4E3SFH2xTm/HEsOtTIAfqwbY17NJsE1xvP3/PftrKiwyjvr8tscD0QevOxBvWEK4lfsEQJF728OUvQJC/y5oEWhFGYKc8st/DXrL7Sv6TH1nCeBWyeDXAIRdkpZOSTX/DfpIOvt+j+h22lLZh6egyc/DmrwhNTbWnkeaG7emwKcCig1aZ6q3DnP3KNB1AM2TMrtrmLf5COAfuM9qihtAM6gPWJNz7SZu3HxPAIlYR2jHQSAD4D8EgKKtvrtAr8E8/qoFnW3fgV4B3Yr/T8az7AuQj6FnpWfmkePGrXjtX5UyRB0A1gPac2OAbDReT3JMMQ1/LwDdjiXBy6D3FdWJW45rvYt7PYv/ydI4zfEmHRNA3xrvb4R7d0tZOnvWuXErkQWASUBr47gx/TqsAb0TqAte9yZyTG1TgHJXfL5XE4I21o/H3782e59ozNrfAvA96VoAto7/1wfI61KWVsuZZLhx48aNGzdu3Lhx48aNGzdu3Lhx48aN2x9byoqBtFaOpVfZpl6VtAQRM4Ybt7IA+ES9NcDd0bZE56Sl97AtfYhjCQvvTcfr60EnAfCMeG7cyqEB2JsC1JeBHpf55JqnlLoP1JU5xY1bGTSAeVqOSDEGPDduDHhu3Lgx4Llx48aA58aNGwOeGzduDHhuUWqpiXoVKJayYm2YGwx4buUGcCtWa1taD9vUR4J2hXwc4Vj6KSlL68XcYcBzKyd5MUUv0CWQCSr1PVcm1aR8gZ+kLH0j5hADnlt5ycuWGdKBM+AZ8NzKUF62yiAnDHgGPDcGPDcGPDcGPDcGPDcGPDcGPDcGPDcGPDcGPDcGPDcGPDcGPDcGPDcGPDcGPAPeD+BTY2OtU6bojs82AW2RtPRJa4n+p/fx+QapRKwDc7mwBt6Bx1qn1ES9G/g52PbSkWWjYfRd0PoMeG5FAz5lxVo7luhvm/pk0Dl4/27QHLcCq6V/0YReB73g/tYUV4KOBm2PCaCOOZ4G2GNj1SlDaODtcNsSO2DSPAT8Og38uwh0m6xy+xToxRw0W373OlxjBv7u5FhaVwZ8QC1piQno+J7NCYwYpPg+nW1Pkza/l4V7dQkC8I4V7wlhPFUC/EvQKp/VU+lgxU+g9/D72/F3Xwh4e0V8aOuVf16X55J2wue9Fd2rJ10vy72I1vOpueO2qY2i0tAA5lkA95347ROgV2X9+sWglUVWrV0Gmg96Gvc4DnLRO2DAL8D4Ts/BHz+0G3g9PCv/vCKfVprfTiJsKJ2Mgd10z0lYh1C4g7YoDU1VC3h9G6lVm9+HtOoYxYB/BgM5E0JJwri0SCFc5T2n+EfSEMMU8EEHPZuB50Tv4/M9FfF8Z1zv3Sz3Iurnk+fHghwJ7GVyUgyyDv0Skhf04c+w0uoDAvxq0Hc5+OOHUnjO03I8wxgp681/S33cRrFFMzXdcxLWSShey8CMGYoBP04KTPP7fAxKKAb8GgnURoUCSNf8PGmKo5yE1rHQssngA+XSfzfLfRbj8wMU8XwvT4tl7ddAnzw/P2CAp6NGd3IxxfXg+4ZUYEQx4FXRcvD6whzPkJCy3vy3DmFDMeBnpHtOwnq5Aj5I+hEC+DfH1HpRfXYGfMnoPgB+cCEVhRjwDPhiaSVAfxk0vWDAl5LE3ZhkNQY8Az4fIgC8AnquGdFzLM9H0ydN/WQGfFYH3JdyzF9Nw2/aFbHzdPT9hon2SAY8Az67x90Utm26W0WH4zkM/L8ZXg9tSnh/O7y/B753A/7/yue1vwWZDHhPcMG7yyhPHP4egP93wf0bQOPB183X5bcY6cqEKfaB5r4Y7yV98vy9fL33WQBPk00SzzGvSHob/ZjBgG95wP8GwbrWNsSmGJDOSUNkzVCKz6uSptChucfi+4/43Mabm7L8m5llDPi7wLtuAGM97dH73kJKxKptU4sD9CNpmeT6SLLf51eKp1AEeMfxAq8GFUkD8OydGPAtB3gAVXwMAdwdgG8HAczLuQbgVzsNWgy/P1ZuaWS71y/o23kQ9JoKB/yNoIJjFWjXA/xum/Tu83OOe72SSsR7KwB8yQJvGPDBAv4ZAH2DogMYxsbaQZuciev9kON+b0FTbMKA19sr4Hl78PzGHPdaCI16EAOeAa/88IwE/WU57ocJQcyg3OcMeAU8JxPZi3TMZsFd5offDHgGfN4N2rtfhmdvSo9gLdqbAa9AYE29CtealeN+D6R8hqQy4BnweQqgViNjrrPdMwlBncSAVzLBVoGOznG/2RiXjRnwDHjlgIfpSNVLhrprx8z3XA3AH0NHcBnwRZv0reTR2Wz3e4dOMzLgGfCBJMCANtEhYLdmva+p35A0RBcGvAqhFX1B32S539fUPwY8Az4QwKcSsbYA/LScZqalD2HAK3n2DUDvZ7nfd/h8fwY8Az6wFFe45kQZMprpvl+gn1sz4JU8ezd5nDTbPY9jwDPgAwN80kuD9WG2mGpQAwNeidAK0J0MeAZ8S2p4ctz9J8e9JzLgGfAM+PIA/GAvm07mezuWfiSEqC0DngHPgI8+4AfJxIzZAH9iKovgM+AZ8Az4iAAewqHjutcy4BnwDPgKADzA3APXvYMBz4BnwPMangHPgGfAVxzgTf2QlCFqGfAMeAZ85PfhxSYyH162e++YLeEGA54B36KAty3xZfq4cHEWA76Jw25sjHiVkIULsiRm0LfLwYdcgP8B1ziUAV8xgCeZMUoI+PTMxIcPM+Cb3HOCVouBmZIr803SFJsUCXii0/NNy8WALwjwnzmWvlkLA57oAEw81S0KeGiztxnwTZ7fFBqueX2O+95v58iomvS29l7KcZ2LUwlRz4BXBvgtMqTDprJZB4QA8H93LBFrYcDrX2PW6cyAl+a8KTbKkUp5jauZLT1rtVlcp6OsYJs1Aywm3B4MeFWAFyNkjvw0GXDFzJYHvHg4qWC8iwU8lVTanQHvplyqwfVyZbxZDCtgLx/XqgddmONacyAAIxjwagAPPmycTA+2RozF40lDdGthwH8OrA0pDeBNtzZ6hiT94hoGfKtWzoQ45U1/L8c9XwRIc64HHTNei2sdnDMrqyUsBrwqwIuBSa/6TbprfJxUwOuc4+4dvHo1o3VoioMx8dQEDnhopeeyMPR1mKj9KxnwtqlVg0dXSJM9y7FYcS4EJ2cWVZkuawwoW1mr3yEgZ6R81m5nwOe8Vk83yWj6a6zAWJyRGhdrEyTgU1ac+vN0Rie5KZ4C1QcOeHT2pCwMXYovnQlBbluJgEe/68CfI3wURqDMLNvncd0Bsr5a9qSYlr45QF/FgC9SwxsiDkv2oizXeRkT+5ZUBSdYs95VHL9lidLcP5+qPQUB3rG0Udkegmp5Qegnghm1lQR4CEAMA/QXcl7muBdpiKswUL41BARwfQjguW7du+zXvjJlxDsx4IsDvExPdkxWfpviH44RH1BICfA8Jvr9ZD3CTDtjtm2IbSBLNYEBHjfpJit5ZsnGKp4BWVS2qdwBD5O7BmDvj/6ehmt87qe4oV3AXi6uv5OPyYSqpc6Elu/CgC8c8E34/U3W4hamuA2g710AkNuAevuY6HvZVHiSnIUZC59inW8KA3LYNhDAO2S2UsXP7IxdDXo3SetKUwzLG0SJWBt0Yu8MVVmDAPwTmCn70XZaXs9pxDEgrgn/pI+ihqQVfs2n5NEf+mCIHqRVcvgG3Np1oNuxvpsEIahjwBcG+KSXZvzZnDUJTXEXwDvcp1x3AkB3IgvPjZ2wYvW5+yUuzDHmqz0lIs6C9T0c12ytFPBUxA8X3zpLUMAf1vS2Vxr3TjCQLvonZ6I+OjVRH76W6H96H7Q/vnMSboK1k6CAlHkZlg5BAJ7AOhf3vQ10NNZGu6YsMbLpc0JrjnCf1xJj8J3DQNd7v8lmcq1jgl2FQS/I0UJrNQgLATLl416rvDW9eAy/OR2vD8LEu+0f+yNoabYHBZKA72cnvXP7b+RYrlUO4A3RjqwlCahs11zp8Y1ALA6EPG/RhM+bOKZowOckL5dJP4wjr/kWJoqcytAxxEA8x48+xvxnN/e+ix1xIl7vhTH+A9boeQhnoIMx3id7WNMfAn2aEfAucxNanXTe/eZT2FfLB/pBRistakKL5ftLZIbXFTlmtCDLRa+Sz/l9mudcS9/KiWxlHjXnySS7DgPcrUihpsKJV0ke+at172n8JdI8zcT3X2V/Gn1csyIAL01vCrF90+f4/iZ5uTiNvPwkP2/K3y9x/X38TPSYkI/2OTZrA7qWZcDaIvmMS6RcrMjmp/gv4OUMuAHevDUP0KuiIAGvmhol8y9J+qxr5sMsJNP+UR+aJyiqGMB7a3n9BF/LtfwJYBPnYzxrfEw864Nul1mOSzbWfwD82gAFGfa5ggGfVrumAM5zVIZBNgH9Ez7W8wz4IgEPXneWFYRWBcDLhx0j3tOntdEDdJOPLd/gAN8E9NeX8EGiAHiaAB+HdpgMgekYSCSWEaedgdtyeJJbEvDTZKRYJjrZyZKtt4DINDpzcFaOe/5PQbsXhuhnexpWNejfhrm+XR5LjA2lL2BhHia+WsB7W1N6F7lvOTegmXCteTwP97nJMcXQPAG/uzzHH7RGpHXRi3jG42xTGxRoJNbYWJWd0DrjfofKXYIgJ9xlsqAGOXi6+eQ5RauNzkQAaF+VRzxxrdayTPfoLFSwD8VJxLtRzgdcY74SWTbFItDVkJMh+S0xNDyHdiDk+akA5Zl8Oh8kTf3CzAxp0MirOQI0FTPDo9JRUewa5xP8/Zfjzdw74rojcf0+FBiRp/NF4Hdb43p741rH0ukyXGuOj31tf6a7Kb5Ieh7+yfh/Y+JFqxI1ymmPe1Ik3kG4/4N4lqUK+rQEmodiLW6mvPmwVCaif5uD+oBat6rA5p6ANLT1wOPtQTNBHxSg3JaAf3PAz5MwTtuCehSyjYbftPEsazpj4e5oFTvmjUnXOSno1OXJoB3pnAcsm+65tY6htcWPO+EifR1vu+1ydOw+Mg+yENUEI5PpCgpNpW0xvCbzhRyDnfB/fTEho02DZHCddrimhg51xX17OxBkXH83vHcB6BoI+myZxuvdNIxc7h2ecD+/Bc96tmNoCfzthd/FwaAWAwP6RUJAFWv7O6ZG23dnkn8Fz/pSdt6LR1y+Y1KF5bQnaBRVYkV/uuO9eMrU26pIrlE2wLdoe1TrQMeRwefx4N9x4NNNGfj7Cvj4sDsWhpiIsRngyp0h6hQ9Sy2ehZTZQFyfAoXIX3SPe9/MYw55cIF9EWQfWBMm1U/A+91tN4eDVkd9XHuP/we1ORweelCQKQAAACV0RVh0ZGF0ZTpjcmVhdGUAMjAyMS0wNi0wMlQwOToxODowNyswMDowMJGjhxAAAAAldEVYdGRhdGU6bW9kaWZ5ADIwMjEtMDYtMDJUMDk6MTg6MDcrMDA6MDDg/j+sAAAAAElFTkSuQmCC;" parent="1" vertex="1">
                    <mxGeometry x="160.24" y="430" width="29.54" height="30" as="geometry"/>
                </mxCell>
                <mxCell id="12" value="" style="shape=image;verticalLabelPosition=bottom;labelBackgroundColor=default;verticalAlign=top;aspect=fixed;imageAspect=0;image=data:image/png,iVBORw0KGgoAAAANSUhEUgAAAPwAAAEACAYAAACXjBuxAAAABGdBTUEAALGPC/xhBQAAACBjSFJNAAB6JgAAgIQAAPoAAACA6AAAdTAAAOpgAAA6mAAAF3CculE8AAAAB3RJTUUH5QYCCRIHRlXDRQAAAAZiS0dEAAAAAAAA+UO7fwAAMJlJREFUeNrtfQecFFXyP7vLEnZRZvo1WZJkJRgAs6Sd7gbjmfFn5jwRPRUx/swJPc+cczqznnoqplM8DJizYmC6x0QwIqIgwf39v9X9uP+6TOiZeT3bPVPv86nPzk7o7levvq/q1atX1aoVt0i31NhYVcoUtSlL1NmWHrNNXU9aeg8i/N8b1L8JDXYsYToT9X0dU+xum2KTZp/3w3u9mvxeo2vi2u1SiVgNc5sbt9KCuxrgW882tQ1sSwwFKLcCIHd0LH0K6FS8vgGAfwjvv0eE/xeC/i8PWgX6osnv7wRdh2tPx0SwDyiB97dM0kSBZ0hN1Ot5VLhxUwnyRAwaWwwHwHcCHQ4AzsTfu/F3LoEzT0AXSytBKdDb8hnOAR2MScbAMw6lZ+UR48YtH4Bbsba2pfVPeib3GQAWadnnJdB+KzHA/dAvoE9As91nxTO7z44+UF94RLlxS6vJ4wOhKY8G3QHwvCIBvjyEAM9Fy+Wzv+L2xRQHQPP35xHmxiBPxDoDEAdCMz4iQfKTXEf/X5kQ9eV7kOP2EX2lPvPIc6sMgJuiHYS+u2OJPwEED4GWgH4HNZYRyDNRo+zrEnf9b4gJMP27EU9YMriVD8jHxqph2naCkI8E0GdAyF+rAHD7IuIF8YR4A+qCNX9rlhhuUXW+VTuW1sN2nW/6lRDw+aA1DPR1aI3kzQ0A/WTiGfGOJYhblMDeEcJ7EIT4ftBXDHTftNDjmTiIeMiSxC3sQF8PwronhPZh0AIGcMG0wOOh2JN4ypLFLWxAb2dbmgUhnQX6RjqnGLjF0e+Sl7OIt8RjljRuLdqShgDQxcYQyntAyyrE294S3n3a3nvANsRo4jlLHrdSa/TapKVToMxxAPx3DMpSEXhtiuOSpuhHY8CSyC3wBsHr4h4ksfTnyixIJiq0Evx/Qo5BF5ZIbsFo9USstWOIURCya6TnndfpLbu+pzG4wTG1LWhsWEK5qdTqNaCpoDdBKxhwIdL27sk9d2z4vD43Jet1SihxuYwJZ5CFk76nMaKxYonlVphWN/W2SVOMxVpxLq/VI3JQB2Pljpmht6NMQCzF3HJrdAiKbQgBwB/hnfJiMEWMHIzddCeh9cTankN0uWV1zFU5hrYhNMWl8iQbAyiatARjeJNjxAfSmLJkc0vbkt6prYfYhC+Xs/jiIRpTlmxu6Tzx40AvMlDKjmhMx7GEc2sCdjchxTu8t162e/bv0BizpFe2c66V06B1sE19BgRiMcfBl308/mIaaxpzGntulQb2hIh5sfC8v16izLafg+aBPpA0T6bZLmWizu9pzGnsGfQV1JwJrmYnsPPBl2Az2SwCPQVen4e/O9imGJGy9MFEtuFWvdkFn13ofqd04crfuaCHDDASKkO7t5Fm/A8MykA1+mNYN0+xLa1Xysq8NYbPahxL9MJk8D+gR+Vvg36+H0gGSBYYEeUN9rYY6GNlYgUGZlBmsyXOSlpicD5JKSnZZ9IUAwH6mTK3QNDP+Q3JAskEI6O8wb6AHXTBFaEA0I+wTa3gfHT4bRzXOK5EjrwFDPry3HZrjYE9Ump2BnswtNpNTmGJohNT4BpYdonzSpD8s3Gtpnca4nWMlLIAu95GJpb8jEEZYI55S38UpKyaLK7VBfRMiZ4fsiH2xiTDmj7KDZqCzrFPkOfYGZhBroctMSabcy7vJZgVw9iJnUu4bfo+7pcgmWHkRHX7zdKHYiBfYEAGTvdS2Sjl1pmp9QII7ythP15wDG0AIyeaTjqq4/YIg7Ek59APTxpC+RZXKhGrBeCPKmlwjikexH27MYKitnY39ZkhradedufPod0nBLYsM8WuMiKvVP35DbJzCSkMRlEU1u0GrdvFVN5rLxn9BzQ8QKfrlqDXW8AncTiv58NuxpOjxxRjMGDvMRBLRrNBwwIEPGUKfqUF+vURAG+QTDGywrvfviHoAS7euDYBhOvhpkMrH4E+9DzR+ssSpE3pA/m5LS2jX/OIVwgW8KbYrIXyFKzBvR8C9WdkhXO/PQY6DfRTBYL7N3lQhWrPP4hJ71r8PRVr0akQWIpBaACNB43FZ8NSlt63KcnPxictfVfQFAqgwW//hvfukhOEncUf8gK+v0mAgN8a93ijhfhKIb5nkmwxwsJkyidiNY4pdsDAfFlhiR3eBiCuB4inAag74X+qvdYH/Ci61HJqbKwWk0F3XHNzmLYJ3ONQvL40zb74PNx7u8B8MpY+CfdItiCfv3QsfXfwgktbhcgjr4Oer4zCC+ItAPByAH1HgGEj29Q6AeCBn/qigzC4rwY+z2p2jHUF3tsPE4TytS6uSSHRf5UFJ1qypt0bTkLrw0gLh6OuCoMys4zX7au9ZYp4FCC3bEPrAuDVORPiLZKCGfc+O02Sz2vxvh7AvXrg2v8IhTVliis57XUo1u7ayDLNMkuOs/lJU1wMc3JIiLY9R6U5vvojhdYCoFUKwU7bq7uEyCez2jG0MYy4lhQ+S3SGWftEeZ6AE/MwmW2lMj5doSPt5TTPe4+d0DqquD6ln4Il0w3XfDhMefFI1kjmGHktYcrT+s4SR5dxwYhf6JRfGIM/sK7eO41VRRFqf1WRRSY1zs1dcHrLr93XoZ9oB4NkjxFYeqEbIfdnyze1tCnmOg1ap7Dx3jFEJzxfOifpwqSpTykG9F6iErFfSCfyRsjd63g+Lm5RYkddHZhO+6M/lwGwF2XZ4yZH5GHh85u45bN3SBO+TEurFEBxDMaoQwHjuj5+e0rIa/qtgOV1qYqtT27+hILW7mNk4Yiort0b3RNgprjdNsSWEKBnM1oqpvgEfe4ePi0f74hnOyPNSbZGWdvtPtBWsFDapxLpdxRoLB1Lq8b3a21T2xzfvx+vl0ZgXG2s53dIWTrXrSuBV74jAHJhxANmKFjliLVaMGmI0Vmy6K7EBHcJhCt02VjwXD3xfDfKHYV0kxXt0c9yTG0yXg9Gn3tj7MgZ1x2v++C9jRxL7IHvPhTBCMmbHEvvyogMVrtXQVi2BbM/jfCe+px0tc4AgMuz/C5FmXtCulNCoblX51hzY+0rfpSZhx4DzZJRgksjPHEvoAw5vDcfrHbvACZfEOFEEfcCIJumNZEtra883JI2Vh4Twk2wBEQ4J2K9C/r2vyFfewexdXoJliLrMzKDWjda2nBZoSR6QTSmuBXr3gGZ6pXjc8rU+pcsOdk/h4DtEWZHapIqyVjiqRLllQ8DfUUyycgMzny8LIJCsZROnjmG1iub+ecGm5iuefxIZo+9uJvyvIV3q1SrBvXDc+4lgb+83EFPMsnIDEKDjIuvX6IyRGqPV5r6350GTQOgq3xMaDV0RDWLFfOTbYj9wYvWIZ+YKShKOKa2BR1ZTpricfz/tQzWaULiC3z2T0wS0/DdkZRaKoJbrb+EcRelDNbv7ln3KAnCCjLjIQx5naWm/V387uIsUWa0hTeQtrR8Xq82ZWr1+I0A6UQAWVeitf/TZylLtKfvlsD0Xw9Un8HKaSdzES6LmJa/ihGqVmN0Agg+ilgVln8AQAVt2+C3tE33aub9aDHdtrS00WzOuHgt+NUH36FDLglc62DHFBSmejvobkmPS1r7/22OpZ9A38XvLNBougaA2b4FfAExNz7B29GISkQkpcPqxEhVBnh9inciKzIC8EShYJearhbXOCHLVtc8AHSjJiCh2POhoD1BJ3lZb1yP/08FORi9lFiUOedM0L5umedErGSlmIh3EUsx/iPJKCNVzYxP5uh9EZrx34O5vGXSEEVOcm5wyqws5/wvxnfqQZQR5nyZW+5rxWcLGmX47BwA/yrQrnbC9UcEvc1HRUQ2bYFstcXEV9yXaanCLT/zdhyY+XF0gjH0fWiLTZHXO5HFUfm9BHmyRN7wVV6cvOt9nwzQB2ruu+G2lr5bhPb2PyZZZcQWo+WgJaFVTomIE2cZBvwkOyGUzfJu5RVT3BjC0ODv8Vz/xl8Tf6uKtWYygr5Bq5dLm2URcdKeA4uLgVsw4E0x2C5dBdFitd+tFHGmmgdOg9YDghTW5Jy/erEBYqRjaG2DMPUx6cVxn+tCeDY+Hc0B4Ecwcgtfx+4q86qH/eTbexD6QDK3Akid5AGVMPPgA/R/Cia8QDzVlI1XrufDfopuAZTUnozcwsz5Onn8MuzOup/xnKeSZz0AHpB2PyciZbPoIMzldJhGuZYf6xaVPCYCJ+poO/YMkl1GcP7m/ADby1cXbu1u6k9igLsGoNUoo8/NEYsupKXNPQDnNgF47oWMGQi7lv8XQN+PEZy3wIvtQGE/KPO7bWrbB9D3reVktyKaufMpGlBsrZwvCW0YwBRyB574PIgJr9z33ikWe/+w55qH+foEPatisFMttecinnp7ldcHsZli075aWj1h7vsaxxSHlaI4SBntvWsCM/ltIY+m+8axtFEK4w2qKaQ1QsEmfgh9cVN4KUsS4SS0IcT7kGv5O0iGGcn+1++9Qx5sQ3vRlGarg8I+95PZcMrtCOnrsIQGK/RtdJC8D3O2YkrkOSDoiMQyMefdsMrtQz6Dfwkts72fI68+95rpwMg1ZXxu/E6Mq5ICDsRz23B9HJ+Fus+G2NFOaJzkMqfJ5pm2x0fAZOuuSIAp0830Ms8SQ9tV56koUiH9HHSk96qQ9/lsaHnOd+fDtK0BPRjigfwOdAC0shJnHczdnWVSzsYyBrybDkpVUErKitVgAqHqNwvD69DVnwHVMKJzO69ah9wpMxsgHaZo+dJTZnFdU+ZgX+v3eDppiP6KgpIG4XpPhtip+x3JMiM6l0lvxfuH/IDEGSqqpGJJUAuT74QI5mMvbo/eFBc5DVq9AsBTyvITwpwSi2SZEZ3bpN8jxAI7H2DfUYnjydS2hcC+WVlpnb18Aej3BJjl1QqsQTo6/WFozXozvFmGw2PSW/o5IQ6jfQaapbsCQaW8dedFKo2T0mQR4krbKr5Ipru74ZWUDusW3d8Y0TnBoN8f0sGjWnAXK/IyD/M0XcWBfe0uByXS2FrFtiaudXZozxuY4nlGdG4N/0FIBXUxzPndFXjl28q69isrF/Cuk/JcUNGnymA2WzLTUCiXgIzo7CZazxAP3kKsu3dQoJG6gD6uYLCv1fLziRcKnHd1MulmKGUmZemDGNmZt6k2J00a4LbQL97ZcvFa0tLvkuftT8Tr67GUeEomgfwpw8EV2iefj+/tTR72gnchDG2nCthz9+UTgXb+i5pYBv2mkK7jF0OmRzKyMzuz9gwgHXWjTM7wMoA6g7ZKMnmI8X43mNx7QYDuxfcXZdgfp6qnFjRLbYF9vJvB/t/Thk8qkpu/htQBSmnGD2BkZ16/H6l4X/V3N6srecRNfePU2FiNP41BoZtiCmhO2jPppv6sbYiN8nU6UcFFWfqZAe85tX5SkRYLE/nYkPpESJanM7Izm2YXKE65/CGAuXcqEcu7pC/A3DrpVYB5OI2JT7HhM/F5hzwFc/uIn3NXvkXnWPpuCnw/IqTJQlZApi9hZGcG/CUKB24BQDmJgFukV30w6LF06zMIa155yDFBnFUhYbS+LTBVgEh6lXbCuBvxT0Z2ZpP+MSUOLVOscAztSGdCXM3pLEOjMk6pNJFUd+UZY3AvO+zWPS+vCPD/CWn/nmVkZwb8s4rW7XeBusLUU7N7YIgaaPOD0ziGVjpWvI/PHYjWIY4xaElKphLxojPdYpK/lgEfpS05L1/Zc0qSCJrCouspXm5sgOs/v24SS3G0r+04S4zE979ggK9DX2Iy3UKBsghrSPZs1XkPywPwhpvU4GVFySl6BBAj0BaCOa3ZGrwRE8GTPjXQbgHGGESZvqVadX/g9USdqGs+hHGfEdL+vZqy1CRLKbegm4FgzlvFp0gWJ2JGrQ3iGSmtVZpKODBJY5oPDTRZCjeDfN3y1A/LUNumdEeeFNY1/Fsk24zwYAD/bTLAQAdcf2gawfoiZYohDHgmBnzpAU8le83gtg1FH9yjefqthXh/jI8tuRkVluyCiQEfOODp99sG9YxYw3eSlUyb57jbx4fT79yIlY1iYsCHHvAUfDE+MA1vig3kll/Tey6yTc3yAfhTwpyOiYkBH0XALwaw9gtwDb9Rmq3DL/Hsw3z8ltfwDHhuigFPcfjHBeal94o8ftLsnrafIgsM+CyJQT1H6K1p6F4Z++CHPmTAV+Q+vH5L0lJfvjmViNXapjhknVNZpj6b9+GLou9BUwGKLs3J8dJ4D/dDWG79b1hDh1OG1ocRHliknf5+UkHkVhoPPQV3/HPdxJZips9Iu8050i5jgYoxxVtf+pkh7d/zXEk286CpiKWnSLgrAVChqpifY8UpB/qOaY62rkwl4kN9TWjj4+vh+/MY4OsWXoQ230iB7FzMsfTRA/yjalIViR9dEzqhVSt6rp7QQm+kKSf0rzx9AI/yabl16E01FhiflotcU3we/iMAbCsFpnw3XCtdrfolmAQm5bmtdx6fh29++Ei/UZHsvB3S8/APMrJLA3iilwD67WDa1xao2Wnn4IoMWXhupoISeS0NMEFwxpt1MgcVHQqdsmLrhTSKkTPe5ADYMYqDU2iGfRVa5M9YJ+p5CFBb29TG4LdUFCNdGefX8PlWqUR+R3Dx/Y6YgNhT3/SwU4NW/Fl4QyOH6G8h7N8vmNBOZGRnBvwBMtOnarNqsfQP7J6amLn4AQHYMeKjAcpr3OSX6YXIgZk/GYBvW1AfTXEvA/2/GYNe8ptYNIfcHBxSy4msjoMZ2ZmDb4LMS7/GtR5MkQKgr8fr4/F3L9xzBzdbrqmfR/nq5YSzMkO66y8hpIcC8AVvs+D3U9hxtzaXgDhW0VLw5pDmpf82aYjtGNmZAT/QrfAS0gARCOiUorWRKbqBvuIU1WKxk9CKLqdMe9whjrKjyjODGdnZzbOwlmFaAO08UUH/6mQ6pgr31ovrMIGuV3SMhKFtEeKApi+wZGnHqM6+V/1USAfvF6pUWrRGotrwhtgCGu6zCgb8YmU14i1xWohPIc5lROfWgOeHds/YEo9QTfKitZKpCVzrigoGPNX1KzrvICaMesr7boe1PrwpLmNE53Zq7R5iQf0IgzhegaBW216Z408qEOw2Jrs/Udru4v0h7nbcmyGuncce+pzaLxEfEWJhXeYlydSriu5ng1YP0F8Y0v3j4PbdTXGlY8XjCpx1VbapH2WrLz6qjBwjvgkjOrdJ31pmMg2r0D7iWHpfJdaMIfrhek+H1iRVX677VdCWShSDEd9ABkaFORsv56P3sadak/RAENrCCdDye8Asr1HU3wNCvBWpkr6BRj5cyfYtOT5NsbMd4kq8GNfnSJYZ0blmbkunc/GnhFx4rwbodSXCa8U6QHjPLfMYe4qZvw5meFzJJGmK9SXPVod42/FSPGM1IzoXAAxR5Zi6EXIBnocB3VRhwFEnGfpbroB/yTaLD7JpshVHWW7eDnefxT62pVUxonOba1RldWDIzVxoY3FC0hLtFfouhtvhLHlc5NaU/jX4pCwDEfGceB9yi2ghtPsQWG8MaJ/CTxrvgQiEhm6srM8NWo1tiEkAyBdlEmvf6PbFEDs5DaJGoXbvCXJCPsnNgnx0YST733Jp45jisAgI/i0qq9TSyTEJ+g8jHnq7xu0D+qLiNFwT/lRDw58X9onOsfRjsEzjkNr8girEWMzk34Rcyy+DUG+sdLIbG2ttGzpluH09oo48Avt71Afqi1KZAK9DLxP0fJBdRnD+a7VBdri359Yemb2NElsoBn1t0hTjce1/hdsTnfYI8n8A+J0LzTKUZTejDkC6PgJW39Mku4zgvGdzbX0w7+8REHJKmPnngHwZQwCe66ITjSfug7CPDCg+Y3JE4hX+TrLLCC4guALCs7sX6BL6CLJXQKMCEXS3np24LfxBNeJM29T6BjLxmdpwWZ0m7H6N7yiQimSXEVyIsBuRMOu9ElemuJiSKarX8iIG+jTEk91LoAmOodVhaaN+4h8Xb2t72X6XR0AO5mJyGsXILc55d47iTLZB0Q8wv6fiedsotHKqZURZCHMD6O/C+pgaxCTXZOzbQGMeEpESXeRruQxjxlVminTe7SgTSkbBafU+tLGJZ1bincZacDjt92cB3YsSDKU6fEN14F4FCM9OWXq/gK27GvS9IULBSEmSVUZs0d5ZNwjnyeicKBPPwLwdUqx5i35rtleLPoOXXtzrmFov202KKajS6jsBmb3kMPwAdA8E+ijHiA+io6kBx2FQ6qrB6NvjEToJ+CTJKiNWzTr2WDB0aUQGn8Ju70yNixUVdovlwUFZTNmvAL7RTawgAfN6O/xmGuha6URcVty5fzdWnZyFM6DRx+H6XVQGGWVft8faA+w3RSgOYamtKAMvt1ZuUozeEau8ugLAO7/QBIa2qQ2RzspMXukLQO3TrPlrYAp3AliGQgBpH39/mTDzFgD2haRXWTcdUdaYW+i7jqmTxZDAJLIJqDsV5Sjx7kw74l2RE1bJk1WSjDJSFTqvIHxXRyzibEkhoKeAFQD2pCwC/yE+38xP1p2Um0xEdMBv4gB8VwC7RwbqTt+h76YMURvktlKVpCz77Se7DtAoFdSAbJbK+qmgtXysa8gz4aStPAIBPgNAqvO5bqeJzciSqnsFrjUNvGgT7rHSaxzaTjRFT8fSd8JzX4IJhxJCvOXu2bvVe/RX8d6/8Xom1utj8d0+6Nv0iHjk/zAm6O8IRmgw2zS3RjC2nIpOTIdw67k0J8zprhkq1crTZ4JOYQ0OMdCrAHCqtks7K9fKU21rfG1pme5EsDRq44uJ6z5GZlBreUsfI7eGogb67yDQM52E6Ezn/TOs21sDzJOzJGVcRB55lafPFC+7sBTRt5cT1qIKScr5PckkIzMwb70es706YlEUjp8A2JtTiViP9I5JjUpQvZo5qEM8gEmhW0iXWx0A9kPDnDI6ICJZ5CwXQa4NwWDK574gwrnd7k8aYqN1nVXi1Cwn477C73YJ5ZgkYnE82xl4xq99nGQjn8YHSW9f/5eIg51k0EpxosrAzfouYPSNERaUVV59eX1ik4lsqHRmpZ0kAJA7MEm0CyHYO8LqOF161RszlIR+kyYzxxLb4f/+6EsvIrwegPfG4TMKHX4vguN4I8kiIzJ4LU9bN5MiFG6bJfZenOVYWl+A/+EskYRUgXRY6JZXDVo7PP80WQN93cNEFPZrajs5Vrw9QF2VLr8bvUef4TtUlGMvGTC0IhKOWFOn6jkMyBKBXoDpV0VEOLJXYrHEm9mKIQIQp4WN/7A2qt3IPkv/LE1CEHIuXorv9CpgXHtQZRrXyRnq6jn6TehfV0ZiKYXOEtsCLG+XScLHjOmwYQH0Chvv7YSmgfd3pQ0xNfUjYeprRTgA18c1jgtpWC1kTbyHyW4cI7D0nmEyKc8Kcang4tf6pqDjtrWhA7wpJqZ1upliporjoalxMToDf10Ix+RnkjmSPUZgSwieW5vNNYnLT8ub4hP0b1imffuW3R4Vs9I8M50SVLJt6J6WM8UAmeUmTNqdEotuwMhrKS0/NlbteFFdq8tQwy+HgL2Mv4ejn3Wh4Xki1sc9J/DHyWkFJqddnIRWrW5S0ek8/J4hyue3mmSNUdfyDjzKfXdjma7lG2Vo6iKA/1xo0BEAQdwx421aqqqJPNjTfH19D6i7amsE19wwJCW4GrFuv1dFmXBuCho0S18I4kcVENlFW3kPAfx/AW1jm3rf1ES9voTanY6uPt5sC5F2Gg7FBFSrfjLHWt7Sj29xB54pPnUsbSgjLTzbRG0wA+8f0Tj7wuPzPe13KgSSsvtujXVv/5QVV5YiGZMJnXrrBd6Odu9hujXdmsfJ25gExgdnUehUFvrzloyXhwX5Z1BbRlq4QN8FAnl1GezNF5Je6VsZx/4Y6AZKZJG09IOheXcGT8YAtEMA3g0ldW2mtTu771t6f6xRR+G3DfjtfvgtadaLQA9SHjt5j3TBQXMBhs2CcxDqW4PeaLlEJuJqki1GWPgceFXQcJtikGZXGOAzZVAlTTxf5qMj598cSXQG/Z9N6Bn5PiXEfMsrhe3GxfvNOEP8HhachhebyWdrCT7OJpniPPPhdeDVYpD2cs1MBn3JQBEo4D2r45UW6BfJ0F4kU4ysEDfazpFpkpYwGEtCZB2MCHA8t3QPG5U8wEanQz18Ei4i5j1F4d0W8ZLLUSGbCl8G5pux3Ki++aWtfivuTlkxPuceKdAn3Bx4cxiQgdOvtiUOBL9bKx9DK9YamvawEodPz4EZ34cRFEXPPe1VW/qnDMrA96mvt01NeREGTCQ0ad9Uwr58SjLDyIku4GtBlCfOYWAGCvjPbUOMVOnNduvqGWJcCffgHZIVkhlGTpSdeAmtHmbh0VHLdR61WACs4+8BKYv5pxBiygFYohJjP7gyAllhxETfgdfKmaDVyRhw9twH6OyCdjwCa/miPdvkD8DkMb1Eh6KWUW17kpEwnkzkVrgQCarhniElE5Ma0/4bx9B2TFl6wZoev63HNXbDtUqR5JIyCV9MssEIKU/Q6xL0vzJAAzrdZwrHsfSpeJ13Cig6a47fHo1rLCzJ7oIHdk5MVwGa/hLvlBeDNCD6xovpFxNh5udcF+M7Hd24f6+IxY+lyUsnLmHNXiHNMeJ00OZSBn3g6bg/AZBvodLXKVMMp3x1TfbYYyk6+2DqdNT3Dhlcs6pEYL+UZICRUDlavgoD3oNBXzLgfyPjISjp6OuS3pFZb78t4Xn3tWDvQTLASKg80HeGAFwkI7kaGZxl7FvwElBeRGPOYK/sbbs2MCuPksE5DPryBLtDY6wioy638gB926Qp9pVnwRkkZZbbn8aWxpglnVtzb/EulMGFQVI29DyNKUs2t/T7wKZWDdoKa707Q1r5hMl3EQ/9UYB9S1A1Sza3bM68asfQekJgLnRLJzF4okZLMWFfjol7YNIQnMCCm681fSvb0NtDcA6U+8O/M5AikczzE9DeGLf2KYs98dwKAb+lD4IAzSrjGnblQLTlNovGiiWWW9HNGR9fL2mKc2RNek6bFaITejQmNDY0Riyp3FQ69OpAf4ImuZ+P2YaCltmWeBRjsgeNDUsotyDW9tVJQ/S1TX06gD+fA3Vaaq0uPky6NeTFIMp7x5LJLdAG0NfbhtgCwncVA7DkdKVtaKNoDFgSuZVS21dB+Oq9I6DuoZCVrPEDC41d5fHYTVldz5VguLW0J7+jY4kj5QkwPoij8sAL8dQUx0Gj89l1biEz9S0xAFrodFkLbTmDtmBa7vFQnE48ZcniFnbgbyyBP6dEGVzKCegvS6BvzJLELUqgp5z4m0CADwU9wskzcyWT1GcB6MeAZ5tzbnhuUV7ft8UatDeEeZKbZ90Uyxjga0ksdr3u4E3SFH2xTm/HEsOtTIAfqwbY17NJsE1xvP3/PftrKiwyjvr8tscD0QevOxBvWEK4lfsEQJF728OUvQJC/y5oEWhFGYKc8st/DXrL7Sv6TH1nCeBWyeDXAIRdkpZOSTX/DfpIOvt+j+h22lLZh6egyc/DmrwhNTbWnkeaG7emwKcCig1aZ6q3DnP3KNB1AM2TMrtrmLf5COAfuM9qihtAM6gPWJNz7SZu3HxPAIlYR2jHQSAD4D8EgKKtvrtAr8E8/qoFnW3fgV4B3Yr/T8az7AuQj6FnpWfmkePGrXjtX5UyRB0A1gPac2OAbDReT3JMMQ1/LwDdjiXBy6D3FdWJW45rvYt7PYv/ydI4zfEmHRNA3xrvb4R7d0tZOnvWuXErkQWASUBr47gx/TqsAb0TqAte9yZyTG1TgHJXfL5XE4I21o/H3782e59ozNrfAvA96VoAto7/1wfI61KWVsuZZLhx48aNGzdu3Lhx48aNGzdu3Lhx48aN2x9byoqBtFaOpVfZpl6VtAQRM4Ybt7IA+ES9NcDd0bZE56Sl97AtfYhjCQvvTcfr60EnAfCMeG7cyqEB2JsC1JeBHpf55JqnlLoP1JU5xY1bGTSAeVqOSDEGPDduDHhu3Lgx4Llx48aA58aNGwOeGzduDHhuUWqpiXoVKJayYm2YGwx4buUGcCtWa1taD9vUR4J2hXwc4Vj6KSlL68XcYcBzKyd5MUUv0CWQCSr1PVcm1aR8gZ+kLH0j5hADnlt5ycuWGdKBM+AZ8NzKUF62yiAnDHgGPDcGPDcGPDcGPDcGPDcGPDcGPDcGPDcGPDcGPDcGPDcGPDcGPDcGPDcGPDcGPAPeD+BTY2OtU6bojs82AW2RtPRJa4n+p/fx+QapRKwDc7mwBt6Bx1qn1ES9G/g52PbSkWWjYfRd0PoMeG5FAz5lxVo7luhvm/pk0Dl4/27QHLcCq6V/0YReB73g/tYUV4KOBm2PCaCOOZ4G2GNj1SlDaODtcNsSO2DSPAT8Og38uwh0m6xy+xToxRw0W373OlxjBv7u5FhaVwZ8QC1piQno+J7NCYwYpPg+nW1Pkza/l4V7dQkC8I4V7wlhPFUC/EvQKp/VU+lgxU+g9/D72/F3Xwh4e0V8aOuVf16X55J2wue9Fd2rJ10vy72I1vOpueO2qY2i0tAA5lkA95347ROgV2X9+sWglUVWrV0Gmg96Gvc4DnLRO2DAL8D4Ts/BHz+0G3g9PCv/vCKfVprfTiJsKJ2Mgd10z0lYh1C4g7YoDU1VC3h9G6lVm9+HtOoYxYB/BgM5E0JJwri0SCFc5T2n+EfSEMMU8EEHPZuB50Tv4/M9FfF8Z1zv3Sz3Iurnk+fHghwJ7GVyUgyyDv0Skhf04c+w0uoDAvxq0Hc5+OOHUnjO03I8wxgp681/S33cRrFFMzXdcxLWSShey8CMGYoBP04KTPP7fAxKKAb8GgnURoUCSNf8PGmKo5yE1rHQssngA+XSfzfLfRbj8wMU8XwvT4tl7ddAnzw/P2CAp6NGd3IxxfXg+4ZUYEQx4FXRcvD6whzPkJCy3vy3DmFDMeBnpHtOwnq5Aj5I+hEC+DfH1HpRfXYGfMnoPgB+cCEVhRjwDPhiaSVAfxk0vWDAl5LE3ZhkNQY8Az4fIgC8AnquGdFzLM9H0ydN/WQGfFYH3JdyzF9Nw2/aFbHzdPT9hon2SAY8Az67x90Utm26W0WH4zkM/L8ZXg9tSnh/O7y/B753A/7/yue1vwWZDHhPcMG7yyhPHP4egP93wf0bQOPB183X5bcY6cqEKfaB5r4Y7yV98vy9fL33WQBPk00SzzGvSHob/ZjBgG95wP8GwbrWNsSmGJDOSUNkzVCKz6uSptChucfi+4/43Mabm7L8m5llDPi7wLtuAGM97dH73kJKxKptU4sD9CNpmeT6SLLf51eKp1AEeMfxAq8GFUkD8OydGPAtB3gAVXwMAdwdgG8HAczLuQbgVzsNWgy/P1ZuaWS71y/o23kQ9JoKB/yNoIJjFWjXA/xum/Tu83OOe72SSsR7KwB8yQJvGPDBAv4ZAH2DogMYxsbaQZuciev9kON+b0FTbMKA19sr4Hl78PzGHPdaCI16EAOeAa/88IwE/WU57ocJQcyg3OcMeAU8JxPZi3TMZsFd5offDHgGfN4N2rtfhmdvSo9gLdqbAa9AYE29CtealeN+D6R8hqQy4BnweQqgViNjrrPdMwlBncSAVzLBVoGOznG/2RiXjRnwDHjlgIfpSNVLhrprx8z3XA3AH0NHcBnwRZv0reTR2Wz3e4dOMzLgGfCBJMCANtEhYLdmva+p35A0RBcGvAqhFX1B32S539fUPwY8Az4QwKcSsbYA/LScZqalD2HAK3n2DUDvZ7nfd/h8fwY8Az6wFFe45kQZMprpvl+gn1sz4JU8ezd5nDTbPY9jwDPgAwN80kuD9WG2mGpQAwNeidAK0J0MeAZ8S2p4ctz9J8e9JzLgGfAM+PIA/GAvm07mezuWfiSEqC0DngHPgI8+4AfJxIzZAH9iKovgM+AZ8Az4iAAewqHjutcy4BnwDPgKADzA3APXvYMBz4BnwPMangHPgGfAVxzgTf2QlCFqGfAMeAZ85PfhxSYyH162e++YLeEGA54B36KAty3xZfq4cHEWA76Jw25sjHiVkIULsiRm0LfLwYdcgP8B1ziUAV8xgCeZMUoI+PTMxIcPM+Cb3HOCVouBmZIr803SFJsUCXii0/NNy8WALwjwnzmWvlkLA57oAEw81S0KeGiztxnwTZ7fFBqueX2O+95v58iomvS29l7KcZ2LUwlRz4BXBvgtMqTDprJZB4QA8H93LBFrYcDrX2PW6cyAl+a8KTbKkUp5jauZLT1rtVlcp6OsYJs1Aywm3B4MeFWAFyNkjvw0GXDFzJYHvHg4qWC8iwU8lVTanQHvplyqwfVyZbxZDCtgLx/XqgddmONacyAAIxjwagAPPmycTA+2RozF40lDdGthwH8OrA0pDeBNtzZ6hiT94hoGfKtWzoQ45U1/L8c9XwRIc64HHTNei2sdnDMrqyUsBrwqwIuBSa/6TbprfJxUwOuc4+4dvHo1o3VoioMx8dQEDnhopeeyMPR1mKj9KxnwtqlVg0dXSJM9y7FYcS4EJ2cWVZkuawwoW1mr3yEgZ6R81m5nwOe8Vk83yWj6a6zAWJyRGhdrEyTgU1ac+vN0Rie5KZ4C1QcOeHT2pCwMXYovnQlBbluJgEe/68CfI3wURqDMLNvncd0Bsr5a9qSYlr45QF/FgC9SwxsiDkv2oizXeRkT+5ZUBSdYs95VHL9lidLcP5+qPQUB3rG0Udkegmp5Qegnghm1lQR4CEAMA/QXcl7muBdpiKswUL41BARwfQjguW7du+zXvjJlxDsx4IsDvExPdkxWfpviH44RH1BICfA8Jvr9ZD3CTDtjtm2IbSBLNYEBHjfpJit5ZsnGKp4BWVS2qdwBD5O7BmDvj/6ehmt87qe4oV3AXi6uv5OPyYSqpc6Elu/CgC8c8E34/U3W4hamuA2g710AkNuAevuY6HvZVHiSnIUZC59inW8KA3LYNhDAO2S2UsXP7IxdDXo3SetKUwzLG0SJWBt0Yu8MVVmDAPwTmCn70XZaXs9pxDEgrgn/pI+ihqQVfs2n5NEf+mCIHqRVcvgG3Np1oNuxvpsEIahjwBcG+KSXZvzZnDUJTXEXwDvcp1x3AkB3IgvPjZ2wYvW5+yUuzDHmqz0lIs6C9T0c12ytFPBUxA8X3zpLUMAf1vS2Vxr3TjCQLvonZ6I+OjVRH76W6H96H7Q/vnMSboK1k6CAlHkZlg5BAJ7AOhf3vQ10NNZGu6YsMbLpc0JrjnCf1xJj8J3DQNd7v8lmcq1jgl2FQS/I0UJrNQgLATLl416rvDW9eAy/OR2vD8LEu+0f+yNoabYHBZKA72cnvXP7b+RYrlUO4A3RjqwlCahs11zp8Y1ALA6EPG/RhM+bOKZowOckL5dJP4wjr/kWJoqcytAxxEA8x48+xvxnN/e+ix1xIl7vhTH+A9boeQhnoIMx3id7WNMfAn2aEfAucxNanXTe/eZT2FfLB/pBRistakKL5ftLZIbXFTlmtCDLRa+Sz/l9mudcS9/KiWxlHjXnySS7DgPcrUihpsKJV0ke+at172n8JdI8zcT3X2V/Gn1csyIAL01vCrF90+f4/iZ5uTiNvPwkP2/K3y9x/X38TPSYkI/2OTZrA7qWZcDaIvmMS6RcrMjmp/gv4OUMuAHevDUP0KuiIAGvmhol8y9J+qxr5sMsJNP+UR+aJyiqGMB7a3n9BF/LtfwJYBPnYzxrfEw864Nul1mOSzbWfwD82gAFGfa5ggGfVrumAM5zVIZBNgH9Ez7W8wz4IgEPXneWFYRWBcDLhx0j3tOntdEDdJOPLd/gAN8E9NeX8EGiAHiaAB+HdpgMgekYSCSWEaedgdtyeJJbEvDTZKRYJjrZyZKtt4DINDpzcFaOe/5PQbsXhuhnexpWNejfhrm+XR5LjA2lL2BhHia+WsB7W1N6F7lvOTegmXCteTwP97nJMcXQPAG/uzzHH7RGpHXRi3jG42xTGxRoJNbYWJWd0DrjfofKXYIgJ9xlsqAGOXi6+eQ5RauNzkQAaF+VRzxxrdayTPfoLFSwD8VJxLtRzgdcY74SWTbFItDVkJMh+S0xNDyHdiDk+akA5Zl8Oh8kTf3CzAxp0MirOQI0FTPDo9JRUewa5xP8/Zfjzdw74rojcf0+FBiRp/NF4Hdb43p741rH0ukyXGuOj31tf6a7Kb5Ieh7+yfh/Y+JFqxI1ymmPe1Ik3kG4/4N4lqUK+rQEmodiLW6mvPmwVCaif5uD+oBat6rA5p6ANLT1wOPtQTNBHxSg3JaAf3PAz5MwTtuCehSyjYbftPEsazpj4e5oFTvmjUnXOSno1OXJoB3pnAcsm+65tY6htcWPO+EifR1vu+1ydOw+Mg+yENUEI5PpCgpNpW0xvCbzhRyDnfB/fTEho02DZHCddrimhg51xX17OxBkXH83vHcB6BoI+myZxuvdNIxc7h2ecD+/Bc96tmNoCfzthd/FwaAWAwP6RUJAFWv7O6ZG23dnkn8Fz/pSdt6LR1y+Y1KF5bQnaBRVYkV/uuO9eMrU26pIrlE2wLdoe1TrQMeRwefx4N9x4NNNGfj7Cvj4sDsWhpiIsRngyp0h6hQ9Sy2ehZTZQFyfAoXIX3SPe9/MYw55cIF9EWQfWBMm1U/A+91tN4eDVkd9XHuP/we1ORweelCQKQAAACV0RVh0ZGF0ZTpjcmVhdGUAMjAyMS0wNi0wMlQwOToxODowNyswMDowMJGjhxAAAAAldEVYdGRhdGU6bW9kaWZ5ADIwMjEtMDYtMDJUMDk6MTg6MDcrMDA6MDDg/j+sAAAAAElFTkSuQmCC;" parent="1" vertex="1">
                    <mxGeometry x="340" y="430" width="29.54" height="30" as="geometry"/>
                </mxCell>
                <mxCell id="13" value="" style="shape=image;verticalLabelPosition=bottom;labelBackgroundColor=default;verticalAlign=top;aspect=fixed;imageAspect=0;image=data:image/png,iVBORw0KGgoAAAANSUhEUgAAAPwAAAEACAYAAACXjBuxAAAABGdBTUEAALGPC/xhBQAAACBjSFJNAAB6JgAAgIQAAPoAAACA6AAAdTAAAOpgAAA6mAAAF3CculE8AAAAB3RJTUUH5QYCCRIHRlXDRQAAAAZiS0dEAAAAAAAA+UO7fwAAMJlJREFUeNrtfQecFFXyP7vLEnZRZvo1WZJkJRgAs6Sd7gbjmfFn5jwRPRUx/swJPc+cczqznnoqplM8DJizYmC6x0QwIqIgwf39v9X9uP+6TOiZeT3bPVPv86nPzk7o7levvq/q1atX1aoVt0i31NhYVcoUtSlL1NmWHrNNXU9aeg8i/N8b1L8JDXYsYToT9X0dU+xum2KTZp/3w3u9mvxeo2vi2u1SiVgNc5sbt9KCuxrgW882tQ1sSwwFKLcCIHd0LH0K6FS8vgGAfwjvv0eE/xeC/i8PWgX6osnv7wRdh2tPx0SwDyiB97dM0kSBZ0hN1Ot5VLhxUwnyRAwaWwwHwHcCHQ4AzsTfu/F3LoEzT0AXSytBKdDb8hnOAR2MScbAMw6lZ+UR48YtH4Bbsba2pfVPeib3GQAWadnnJdB+KzHA/dAvoE9As91nxTO7z44+UF94RLlxS6vJ4wOhKY8G3QHwvCIBvjyEAM9Fy+Wzv+L2xRQHQPP35xHmxiBPxDoDEAdCMz4iQfKTXEf/X5kQ9eV7kOP2EX2lPvPIc6sMgJuiHYS+u2OJPwEED4GWgH4HNZYRyDNRo+zrEnf9b4gJMP27EU9YMriVD8jHxqph2naCkI8E0GdAyF+rAHD7IuIF8YR4A+qCNX9rlhhuUXW+VTuW1sN2nW/6lRDw+aA1DPR1aI3kzQ0A/WTiGfGOJYhblMDeEcJ7EIT4ftBXDHTftNDjmTiIeMiSxC3sQF8PwronhPZh0AIGcMG0wOOh2JN4ypLFLWxAb2dbmgUhnQX6RjqnGLjF0e+Sl7OIt8RjljRuLdqShgDQxcYQyntAyyrE294S3n3a3nvANsRo4jlLHrdSa/TapKVToMxxAPx3DMpSEXhtiuOSpuhHY8CSyC3wBsHr4h4ksfTnyixIJiq0Evx/Qo5BF5ZIbsFo9USstWOIURCya6TnndfpLbu+pzG4wTG1LWhsWEK5qdTqNaCpoDdBKxhwIdL27sk9d2z4vD43Jet1SihxuYwJZ5CFk76nMaKxYonlVphWN/W2SVOMxVpxLq/VI3JQB2Pljpmht6NMQCzF3HJrdAiKbQgBwB/hnfJiMEWMHIzddCeh9cTankN0uWV1zFU5hrYhNMWl8iQbAyiatARjeJNjxAfSmLJkc0vbkt6prYfYhC+Xs/jiIRpTlmxu6Tzx40AvMlDKjmhMx7GEc2sCdjchxTu8t162e/bv0BizpFe2c66V06B1sE19BgRiMcfBl308/mIaaxpzGntulQb2hIh5sfC8v16izLafg+aBPpA0T6bZLmWizu9pzGnsGfQV1JwJrmYnsPPBl2Az2SwCPQVen4e/O9imGJGy9MFEtuFWvdkFn13ofqd04crfuaCHDDASKkO7t5Fm/A8MykA1+mNYN0+xLa1Xysq8NYbPahxL9MJk8D+gR+Vvg36+H0gGSBYYEeUN9rYY6GNlYgUGZlBmsyXOSlpicD5JKSnZZ9IUAwH6mTK3QNDP+Q3JAskEI6O8wb6AHXTBFaEA0I+wTa3gfHT4bRzXOK5EjrwFDPry3HZrjYE9Ump2BnswtNpNTmGJohNT4BpYdonzSpD8s3Gtpnca4nWMlLIAu95GJpb8jEEZYI55S38UpKyaLK7VBfRMiZ4fsiH2xiTDmj7KDZqCzrFPkOfYGZhBroctMSabcy7vJZgVw9iJnUu4bfo+7pcgmWHkRHX7zdKHYiBfYEAGTvdS2Sjl1pmp9QII7ythP15wDG0AIyeaTjqq4/YIg7Ek59APTxpC+RZXKhGrBeCPKmlwjikexH27MYKitnY39ZkhradedufPod0nBLYsM8WuMiKvVP35DbJzCSkMRlEU1u0GrdvFVN5rLxn9BzQ8QKfrlqDXW8AncTiv58NuxpOjxxRjMGDvMRBLRrNBwwIEPGUKfqUF+vURAG+QTDGywrvfviHoAS7euDYBhOvhpkMrH4E+9DzR+ssSpE3pA/m5LS2jX/OIVwgW8KbYrIXyFKzBvR8C9WdkhXO/PQY6DfRTBYL7N3lQhWrPP4hJ71r8PRVr0akQWIpBaACNB43FZ8NSlt63KcnPxictfVfQFAqgwW//hvfukhOEncUf8gK+v0mAgN8a93ijhfhKIb5nkmwxwsJkyidiNY4pdsDAfFlhiR3eBiCuB4inAag74X+qvdYH/Ci61HJqbKwWk0F3XHNzmLYJ3ONQvL40zb74PNx7u8B8MpY+CfdItiCfv3QsfXfwgktbhcgjr4Oer4zCC+ItAPByAH1HgGEj29Q6AeCBn/qigzC4rwY+z2p2jHUF3tsPE4TytS6uSSHRf5UFJ1qypt0bTkLrw0gLh6OuCoMys4zX7au9ZYp4FCC3bEPrAuDVORPiLZKCGfc+O02Sz2vxvh7AvXrg2v8IhTVliis57XUo1u7ayDLNMkuOs/lJU1wMc3JIiLY9R6U5vvojhdYCoFUKwU7bq7uEyCez2jG0MYy4lhQ+S3SGWftEeZ6AE/MwmW2lMj5doSPt5TTPe4+d0DqquD6ln4Il0w3XfDhMefFI1kjmGHktYcrT+s4SR5dxwYhf6JRfGIM/sK7eO41VRRFqf1WRRSY1zs1dcHrLr93XoZ9oB4NkjxFYeqEbIfdnyze1tCnmOg1ap7Dx3jFEJzxfOifpwqSpTykG9F6iErFfSCfyRsjd63g+Lm5RYkddHZhO+6M/lwGwF2XZ4yZH5GHh85u45bN3SBO+TEurFEBxDMaoQwHjuj5+e0rIa/qtgOV1qYqtT27+hILW7mNk4Yiort0b3RNgprjdNsSWEKBnM1oqpvgEfe4ePi0f74hnOyPNSbZGWdvtPtBWsFDapxLpdxRoLB1Lq8b3a21T2xzfvx+vl0ZgXG2s53dIWTrXrSuBV74jAHJhxANmKFjliLVaMGmI0Vmy6K7EBHcJhCt02VjwXD3xfDfKHYV0kxXt0c9yTG0yXg9Gn3tj7MgZ1x2v++C9jRxL7IHvPhTBCMmbHEvvyogMVrtXQVi2BbM/jfCe+px0tc4AgMuz/C5FmXtCulNCoblX51hzY+0rfpSZhx4DzZJRgksjPHEvoAw5vDcfrHbvACZfEOFEEfcCIJumNZEtra883JI2Vh4Twk2wBEQ4J2K9C/r2vyFfewexdXoJliLrMzKDWjda2nBZoSR6QTSmuBXr3gGZ6pXjc8rU+pcsOdk/h4DtEWZHapIqyVjiqRLllQ8DfUUyycgMzny8LIJCsZROnjmG1iub+ecGm5iuefxIZo+9uJvyvIV3q1SrBvXDc+4lgb+83EFPMsnIDEKDjIuvX6IyRGqPV5r6350GTQOgq3xMaDV0RDWLFfOTbYj9wYvWIZ+YKShKOKa2BR1ZTpricfz/tQzWaULiC3z2T0wS0/DdkZRaKoJbrb+EcRelDNbv7ln3KAnCCjLjIQx5naWm/V387uIsUWa0hTeQtrR8Xq82ZWr1+I0A6UQAWVeitf/TZylLtKfvlsD0Xw9Un8HKaSdzES6LmJa/ihGqVmN0Agg+ilgVln8AQAVt2+C3tE33aub9aDHdtrS00WzOuHgt+NUH36FDLglc62DHFBSmejvobkmPS1r7/22OpZ9A38XvLNBougaA2b4FfAExNz7B29GISkQkpcPqxEhVBnh9inciKzIC8EShYJearhbXOCHLVtc8AHSjJiCh2POhoD1BJ3lZb1yP/08FORi9lFiUOedM0L5umedErGSlmIh3EUsx/iPJKCNVzYxP5uh9EZrx34O5vGXSEEVOcm5wyqws5/wvxnfqQZQR5nyZW+5rxWcLGmX47BwA/yrQrnbC9UcEvc1HRUQ2bYFstcXEV9yXaanCLT/zdhyY+XF0gjH0fWiLTZHXO5HFUfm9BHmyRN7wVV6cvOt9nwzQB2ruu+G2lr5bhPb2PyZZZcQWo+WgJaFVTomIE2cZBvwkOyGUzfJu5RVT3BjC0ODv8Vz/xl8Tf6uKtWYygr5Bq5dLm2URcdKeA4uLgVsw4E0x2C5dBdFitd+tFHGmmgdOg9YDghTW5Jy/erEBYqRjaG2DMPUx6cVxn+tCeDY+Hc0B4Ecwcgtfx+4q86qH/eTbexD6QDK3Akid5AGVMPPgA/R/Cia8QDzVlI1XrufDfopuAZTUnozcwsz5Onn8MuzOup/xnKeSZz0AHpB2PyciZbPoIMzldJhGuZYf6xaVPCYCJ+poO/YMkl1GcP7m/ADby1cXbu1u6k9igLsGoNUoo8/NEYsupKXNPQDnNgF47oWMGQi7lv8XQN+PEZy3wIvtQGE/KPO7bWrbB9D3reVktyKaufMpGlBsrZwvCW0YwBRyB574PIgJr9z33ikWe/+w55qH+foEPatisFMttecinnp7ldcHsZli075aWj1h7vsaxxSHlaI4SBntvWsCM/ltIY+m+8axtFEK4w2qKaQ1QsEmfgh9cVN4KUsS4SS0IcT7kGv5O0iGGcn+1++9Qx5sQ3vRlGarg8I+95PZcMrtCOnrsIQGK/RtdJC8D3O2YkrkOSDoiMQyMefdsMrtQz6Dfwkts72fI68+95rpwMg1ZXxu/E6Mq5ICDsRz23B9HJ+Fus+G2NFOaJzkMqfJ5pm2x0fAZOuuSIAp0830Ms8SQ9tV56koUiH9HHSk96qQ9/lsaHnOd+fDtK0BPRjigfwOdAC0shJnHczdnWVSzsYyBrybDkpVUErKitVgAqHqNwvD69DVnwHVMKJzO69ah9wpMxsgHaZo+dJTZnFdU+ZgX+v3eDppiP6KgpIG4XpPhtip+x3JMiM6l0lvxfuH/IDEGSqqpGJJUAuT74QI5mMvbo/eFBc5DVq9AsBTyvITwpwSi2SZEZ3bpN8jxAI7H2DfUYnjydS2hcC+WVlpnb18Aej3BJjl1QqsQTo6/WFozXozvFmGw2PSW/o5IQ6jfQaapbsCQaW8dedFKo2T0mQR4krbKr5Ipru74ZWUDusW3d8Y0TnBoN8f0sGjWnAXK/IyD/M0XcWBfe0uByXS2FrFtiaudXZozxuY4nlGdG4N/0FIBXUxzPndFXjl28q69isrF/Cuk/JcUNGnymA2WzLTUCiXgIzo7CZazxAP3kKsu3dQoJG6gD6uYLCv1fLziRcKnHd1MulmKGUmZemDGNmZt6k2J00a4LbQL97ZcvFa0tLvkuftT8Tr67GUeEomgfwpw8EV2iefj+/tTR72gnchDG2nCthz9+UTgXb+i5pYBv2mkK7jF0OmRzKyMzuz9gwgHXWjTM7wMoA6g7ZKMnmI8X43mNx7QYDuxfcXZdgfp6qnFjRLbYF9vJvB/t/Thk8qkpu/htQBSmnGD2BkZ16/H6l4X/V3N6srecRNfePU2FiNP41BoZtiCmhO2jPppv6sbYiN8nU6UcFFWfqZAe85tX5SkRYLE/nYkPpESJanM7Izm2YXKE65/CGAuXcqEcu7pC/A3DrpVYB5OI2JT7HhM/F5hzwFc/uIn3NXvkXnWPpuCnw/IqTJQlZApi9hZGcG/CUKB24BQDmJgFukV30w6LF06zMIa155yDFBnFUhYbS+LTBVgEh6lXbCuBvxT0Z2ZpP+MSUOLVOscAztSGdCXM3pLEOjMk6pNJFUd+UZY3AvO+zWPS+vCPD/CWn/nmVkZwb8s4rW7XeBusLUU7N7YIgaaPOD0ziGVjpWvI/PHYjWIY4xaElKphLxojPdYpK/lgEfpS05L1/Zc0qSCJrCouspXm5sgOs/v24SS3G0r+04S4zE979ggK9DX2Iy3UKBsghrSPZs1XkPywPwhpvU4GVFySl6BBAj0BaCOa3ZGrwRE8GTPjXQbgHGGESZvqVadX/g9USdqGs+hHGfEdL+vZqy1CRLKbegm4FgzlvFp0gWJ2JGrQ3iGSmtVZpKODBJY5oPDTRZCjeDfN3y1A/LUNumdEeeFNY1/Fsk24zwYAD/bTLAQAdcf2gawfoiZYohDHgmBnzpAU8le83gtg1FH9yjefqthXh/jI8tuRkVluyCiQEfOODp99sG9YxYw3eSlUyb57jbx4fT79yIlY1iYsCHHvAUfDE+MA1vig3kll/Tey6yTc3yAfhTwpyOiYkBH0XALwaw9gtwDb9Rmq3DL/Hsw3z8ltfwDHhuigFPcfjHBeal94o8ftLsnrafIgsM+CyJQT1H6K1p6F4Z++CHPmTAV+Q+vH5L0lJfvjmViNXapjhknVNZpj6b9+GLou9BUwGKLs3J8dJ4D/dDWG79b1hDh1OG1ocRHliknf5+UkHkVhoPPQV3/HPdxJZips9Iu8050i5jgYoxxVtf+pkh7d/zXEk286CpiKWnSLgrAVChqpifY8UpB/qOaY62rkwl4kN9TWjj4+vh+/MY4OsWXoQ230iB7FzMsfTRA/yjalIViR9dEzqhVSt6rp7QQm+kKSf0rzx9AI/yabl16E01FhiflotcU3we/iMAbCsFpnw3XCtdrfolmAQm5bmtdx6fh29++Ei/UZHsvB3S8/APMrJLA3iilwD67WDa1xao2Wnn4IoMWXhupoISeS0NMEFwxpt1MgcVHQqdsmLrhTSKkTPe5ADYMYqDU2iGfRVa5M9YJ+p5CFBb29TG4LdUFCNdGefX8PlWqUR+R3Dx/Y6YgNhT3/SwU4NW/Fl4QyOH6G8h7N8vmNBOZGRnBvwBMtOnarNqsfQP7J6amLn4AQHYMeKjAcpr3OSX6YXIgZk/GYBvW1AfTXEvA/2/GYNe8ptYNIfcHBxSy4msjoMZ2ZmDb4LMS7/GtR5MkQKgr8fr4/F3L9xzBzdbrqmfR/nq5YSzMkO66y8hpIcC8AVvs+D3U9hxtzaXgDhW0VLw5pDmpf82aYjtGNmZAT/QrfAS0gARCOiUorWRKbqBvuIU1WKxk9CKLqdMe9whjrKjyjODGdnZzbOwlmFaAO08UUH/6mQ6pgr31ovrMIGuV3SMhKFtEeKApi+wZGnHqM6+V/1USAfvF6pUWrRGotrwhtgCGu6zCgb8YmU14i1xWohPIc5lROfWgOeHds/YEo9QTfKitZKpCVzrigoGPNX1KzrvICaMesr7boe1PrwpLmNE53Zq7R5iQf0IgzhegaBW216Z408qEOw2Jrs/Udru4v0h7nbcmyGuncce+pzaLxEfEWJhXeYlydSriu5ng1YP0F8Y0v3j4PbdTXGlY8XjCpx1VbapH2WrLz6qjBwjvgkjOrdJ31pmMg2r0D7iWHpfJdaMIfrhek+H1iRVX677VdCWShSDEd9ABkaFORsv56P3sadak/RAENrCCdDye8Asr1HU3wNCvBWpkr6BRj5cyfYtOT5NsbMd4kq8GNfnSJYZ0blmbkunc/GnhFx4rwbodSXCa8U6QHjPLfMYe4qZvw5meFzJJGmK9SXPVod42/FSPGM1IzoXAAxR5Zi6EXIBnocB3VRhwFEnGfpbroB/yTaLD7JpshVHWW7eDnefxT62pVUxonOba1RldWDIzVxoY3FC0hLtFfouhtvhLHlc5NaU/jX4pCwDEfGceB9yi2ghtPsQWG8MaJ/CTxrvgQiEhm6srM8NWo1tiEkAyBdlEmvf6PbFEDs5DaJGoXbvCXJCPsnNgnx0YST733Jp45jisAgI/i0qq9TSyTEJ+g8jHnq7xu0D+qLiNFwT/lRDw58X9onOsfRjsEzjkNr8girEWMzk34Rcyy+DUG+sdLIbG2ttGzpluH09oo48Avt71Afqi1KZAK9DLxP0fJBdRnD+a7VBdri359Yemb2NElsoBn1t0hTjce1/hdsTnfYI8n8A+J0LzTKUZTejDkC6PgJW39Mku4zgvGdzbX0w7+8REHJKmPnngHwZQwCe66ITjSfug7CPDCg+Y3JE4hX+TrLLCC4guALCs7sX6BL6CLJXQKMCEXS3np24LfxBNeJM29T6BjLxmdpwWZ0m7H6N7yiQimSXEVyIsBuRMOu9ElemuJiSKarX8iIG+jTEk91LoAmOodVhaaN+4h8Xb2t72X6XR0AO5mJyGsXILc55d47iTLZB0Q8wv6fiedsotHKqZURZCHMD6O/C+pgaxCTXZOzbQGMeEpESXeRruQxjxlVminTe7SgTSkbBafU+tLGJZ1bincZacDjt92cB3YsSDKU6fEN14F4FCM9OWXq/gK27GvS9IULBSEmSVUZs0d5ZNwjnyeicKBPPwLwdUqx5i35rtleLPoOXXtzrmFov202KKajS6jsBmb3kMPwAdA8E+ijHiA+io6kBx2FQ6qrB6NvjEToJ+CTJKiNWzTr2WDB0aUQGn8Ju70yNixUVdovlwUFZTNmvAL7RTawgAfN6O/xmGuha6URcVty5fzdWnZyFM6DRx+H6XVQGGWVft8faA+w3RSgOYamtKAMvt1ZuUozeEau8ugLAO7/QBIa2qQ2RzspMXukLQO3TrPlrYAp3AliGQgBpH39/mTDzFgD2haRXWTcdUdaYW+i7jqmTxZDAJLIJqDsV5Sjx7kw74l2RE1bJk1WSjDJSFTqvIHxXRyzibEkhoKeAFQD2pCwC/yE+38xP1p2Um0xEdMBv4gB8VwC7RwbqTt+h76YMURvktlKVpCz77Se7DtAoFdSAbJbK+qmgtXysa8gz4aStPAIBPgNAqvO5bqeJzciSqnsFrjUNvGgT7rHSaxzaTjRFT8fSd8JzX4IJhxJCvOXu2bvVe/RX8d6/8Xom1utj8d0+6Nv0iHjk/zAm6O8IRmgw2zS3RjC2nIpOTIdw67k0J8zprhkq1crTZ4JOYQ0OMdCrAHCqtks7K9fKU21rfG1pme5EsDRq44uJ6z5GZlBreUsfI7eGogb67yDQM52E6Ezn/TOs21sDzJOzJGVcRB55lafPFC+7sBTRt5cT1qIKScr5PckkIzMwb70es706YlEUjp8A2JtTiViP9I5JjUpQvZo5qEM8gEmhW0iXWx0A9kPDnDI6ICJZ5CwXQa4NwWDK574gwrnd7k8aYqN1nVXi1Cwn477C73YJ5ZgkYnE82xl4xq99nGQjn8YHSW9f/5eIg51k0EpxosrAzfouYPSNERaUVV59eX1ik4lsqHRmpZ0kAJA7MEm0CyHYO8LqOF161RszlIR+kyYzxxLb4f/+6EsvIrwegPfG4TMKHX4vguN4I8kiIzJ4LU9bN5MiFG6bJfZenOVYWl+A/+EskYRUgXRY6JZXDVo7PP80WQN93cNEFPZrajs5Vrw9QF2VLr8bvUef4TtUlGMvGTC0IhKOWFOn6jkMyBKBXoDpV0VEOLJXYrHEm9mKIQIQp4WN/7A2qt3IPkv/LE1CEHIuXorv9CpgXHtQZRrXyRnq6jn6TehfV0ZiKYXOEtsCLG+XScLHjOmwYQH0Chvv7YSmgfd3pQ0xNfUjYeprRTgA18c1jgtpWC1kTbyHyW4cI7D0nmEyKc8Kcang4tf6pqDjtrWhA7wpJqZ1upliporjoalxMToDf10Ix+RnkjmSPUZgSwieW5vNNYnLT8ub4hP0b1imffuW3R4Vs9I8M50SVLJt6J6WM8UAmeUmTNqdEotuwMhrKS0/NlbteFFdq8tQwy+HgL2Mv4ejn3Wh4Xki1sc9J/DHyWkFJqddnIRWrW5S0ek8/J4hyue3mmSNUdfyDjzKfXdjma7lG2Vo6iKA/1xo0BEAQdwx421aqqqJPNjTfH19D6i7amsE19wwJCW4GrFuv1dFmXBuCho0S18I4kcVENlFW3kPAfx/AW1jm3rf1ES9voTanY6uPt5sC5F2Gg7FBFSrfjLHWt7Sj29xB54pPnUsbSgjLTzbRG0wA+8f0Tj7wuPzPe13KgSSsvtujXVv/5QVV5YiGZMJnXrrBd6Odu9hujXdmsfJ25gExgdnUehUFvrzloyXhwX5Z1BbRlq4QN8FAnl1GezNF5Je6VsZx/4Y6AZKZJG09IOheXcGT8YAtEMA3g0ldW2mtTu771t6f6xRR+G3DfjtfvgtadaLQA9SHjt5j3TBQXMBhs2CcxDqW4PeaLlEJuJqki1GWPgceFXQcJtikGZXGOAzZVAlTTxf5qMj598cSXQG/Z9N6Bn5PiXEfMsrhe3GxfvNOEP8HhachhebyWdrCT7OJpniPPPhdeDVYpD2cs1MBn3JQBEo4D2r45UW6BfJ0F4kU4ysEDfazpFpkpYwGEtCZB2MCHA8t3QPG5U8wEanQz18Ei4i5j1F4d0W8ZLLUSGbCl8G5pux3Ki++aWtfivuTlkxPuceKdAn3Bx4cxiQgdOvtiUOBL9bKx9DK9YamvawEodPz4EZ34cRFEXPPe1VW/qnDMrA96mvt01NeREGTCQ0ad9Uwr58SjLDyIku4GtBlCfOYWAGCvjPbUOMVOnNduvqGWJcCffgHZIVkhlGTpSdeAmtHmbh0VHLdR61WACs4+8BKYv5pxBiygFYohJjP7gyAllhxETfgdfKmaDVyRhw9twH6OyCdjwCa/miPdvkD8DkMb1Eh6KWUW17kpEwnkzkVrgQCarhniElE5Ma0/4bx9B2TFl6wZoev63HNXbDtUqR5JIyCV9MssEIKU/Q6xL0vzJAAzrdZwrHsfSpeJ13Cig6a47fHo1rLCzJ7oIHdk5MVwGa/hLvlBeDNCD6xovpFxNh5udcF+M7Hd24f6+IxY+lyUsnLmHNXiHNMeJ00OZSBn3g6bg/AZBvodLXKVMMp3x1TfbYYyk6+2DqdNT3Dhlcs6pEYL+UZICRUDlavgoD3oNBXzLgfyPjISjp6OuS3pFZb78t4Xn3tWDvQTLASKg80HeGAFwkI7kaGZxl7FvwElBeRGPOYK/sbbs2MCuPksE5DPryBLtDY6wioy638gB926Qp9pVnwRkkZZbbn8aWxpglnVtzb/EulMGFQVI29DyNKUs2t/T7wKZWDdoKa707Q1r5hMl3EQ/9UYB9S1A1Sza3bM68asfQekJgLnRLJzF4okZLMWFfjol7YNIQnMCCm681fSvb0NtDcA6U+8O/M5AikczzE9DeGLf2KYs98dwKAb+lD4IAzSrjGnblQLTlNovGiiWWW9HNGR9fL2mKc2RNek6bFaITejQmNDY0Riyp3FQ69OpAf4ImuZ+P2YaCltmWeBRjsgeNDUsotyDW9tVJQ/S1TX06gD+fA3Vaaq0uPky6NeTFIMp7x5LJLdAG0NfbhtgCwncVA7DkdKVtaKNoDFgSuZVS21dB+Oq9I6DuoZCVrPEDC41d5fHYTVldz5VguLW0J7+jY4kj5QkwPoij8sAL8dQUx0Gj89l1biEz9S0xAFrodFkLbTmDtmBa7vFQnE48ZcniFnbgbyyBP6dEGVzKCegvS6BvzJLELUqgp5z4m0CADwU9wskzcyWT1GcB6MeAZ5tzbnhuUV7ft8UatDeEeZKbZ90Uyxjga0ksdr3u4E3SFH2xTm/HEsOtTIAfqwbY17NJsE1xvP3/PftrKiwyjvr8tscD0QevOxBvWEK4lfsEQJF728OUvQJC/y5oEWhFGYKc8st/DXrL7Sv6TH1nCeBWyeDXAIRdkpZOSTX/DfpIOvt+j+h22lLZh6egyc/DmrwhNTbWnkeaG7emwKcCig1aZ6q3DnP3KNB1AM2TMrtrmLf5COAfuM9qihtAM6gPWJNz7SZu3HxPAIlYR2jHQSAD4D8EgKKtvrtAr8E8/qoFnW3fgV4B3Yr/T8az7AuQj6FnpWfmkePGrXjtX5UyRB0A1gPac2OAbDReT3JMMQ1/LwDdjiXBy6D3FdWJW45rvYt7PYv/ydI4zfEmHRNA3xrvb4R7d0tZOnvWuXErkQWASUBr47gx/TqsAb0TqAte9yZyTG1TgHJXfL5XE4I21o/H3782e59ozNrfAvA96VoAto7/1wfI61KWVsuZZLhx48aNGzdu3Lhx48aNGzdu3Lhx48aN2x9byoqBtFaOpVfZpl6VtAQRM4Ybt7IA+ES9NcDd0bZE56Sl97AtfYhjCQvvTcfr60EnAfCMeG7cyqEB2JsC1JeBHpf55JqnlLoP1JU5xY1bGTSAeVqOSDEGPDduDHhu3Lgx4Llx48aA58aNGwOeGzduDHhuUWqpiXoVKJayYm2YGwx4buUGcCtWa1taD9vUR4J2hXwc4Vj6KSlL68XcYcBzKyd5MUUv0CWQCSr1PVcm1aR8gZ+kLH0j5hADnlt5ycuWGdKBM+AZ8NzKUF62yiAnDHgGPDcGPDcGPDcGPDcGPDcGPDcGPDcGPDcGPDcGPDcGPDcGPDcGPDcGPDcGPDcGPAPeD+BTY2OtU6bojs82AW2RtPRJa4n+p/fx+QapRKwDc7mwBt6Bx1qn1ES9G/g52PbSkWWjYfRd0PoMeG5FAz5lxVo7luhvm/pk0Dl4/27QHLcCq6V/0YReB73g/tYUV4KOBm2PCaCOOZ4G2GNj1SlDaODtcNsSO2DSPAT8Og38uwh0m6xy+xToxRw0W373OlxjBv7u5FhaVwZ8QC1piQno+J7NCYwYpPg+nW1Pkza/l4V7dQkC8I4V7wlhPFUC/EvQKp/VU+lgxU+g9/D72/F3Xwh4e0V8aOuVf16X55J2wue9Fd2rJ10vy72I1vOpueO2qY2i0tAA5lkA95347ROgV2X9+sWglUVWrV0Gmg96Gvc4DnLRO2DAL8D4Ts/BHz+0G3g9PCv/vCKfVprfTiJsKJ2Mgd10z0lYh1C4g7YoDU1VC3h9G6lVm9+HtOoYxYB/BgM5E0JJwri0SCFc5T2n+EfSEMMU8EEHPZuB50Tv4/M9FfF8Z1zv3Sz3Iurnk+fHghwJ7GVyUgyyDv0Skhf04c+w0uoDAvxq0Hc5+OOHUnjO03I8wxgp681/S33cRrFFMzXdcxLWSShey8CMGYoBP04KTPP7fAxKKAb8GgnURoUCSNf8PGmKo5yE1rHQssngA+XSfzfLfRbj8wMU8XwvT4tl7ddAnzw/P2CAp6NGd3IxxfXg+4ZUYEQx4FXRcvD6whzPkJCy3vy3DmFDMeBnpHtOwnq5Aj5I+hEC+DfH1HpRfXYGfMnoPgB+cCEVhRjwDPhiaSVAfxk0vWDAl5LE3ZhkNQY8Az4fIgC8AnquGdFzLM9H0ydN/WQGfFYH3JdyzF9Nw2/aFbHzdPT9hon2SAY8Az67x90Utm26W0WH4zkM/L8ZXg9tSnh/O7y/B753A/7/yue1vwWZDHhPcMG7yyhPHP4egP93wf0bQOPB183X5bcY6cqEKfaB5r4Y7yV98vy9fL33WQBPk00SzzGvSHob/ZjBgG95wP8GwbrWNsSmGJDOSUNkzVCKz6uSptChucfi+4/43Mabm7L8m5llDPi7wLtuAGM97dH73kJKxKptU4sD9CNpmeT6SLLf51eKp1AEeMfxAq8GFUkD8OydGPAtB3gAVXwMAdwdgG8HAczLuQbgVzsNWgy/P1ZuaWS71y/o23kQ9JoKB/yNoIJjFWjXA/xum/Tu83OOe72SSsR7KwB8yQJvGPDBAv4ZAH2DogMYxsbaQZuciev9kON+b0FTbMKA19sr4Hl78PzGHPdaCI16EAOeAa/88IwE/WU57ocJQcyg3OcMeAU8JxPZi3TMZsFd5offDHgGfN4N2rtfhmdvSo9gLdqbAa9AYE29CtealeN+D6R8hqQy4BnweQqgViNjrrPdMwlBncSAVzLBVoGOznG/2RiXjRnwDHjlgIfpSNVLhrprx8z3XA3AH0NHcBnwRZv0reTR2Wz3e4dOMzLgGfCBJMCANtEhYLdmva+p35A0RBcGvAqhFX1B32S539fUPwY8Az4QwKcSsbYA/LScZqalD2HAK3n2DUDvZ7nfd/h8fwY8Az6wFFe45kQZMprpvl+gn1sz4JU8ezd5nDTbPY9jwDPgAwN80kuD9WG2mGpQAwNeidAK0J0MeAZ8S2p4ctz9J8e9JzLgGfAM+PIA/GAvm07mezuWfiSEqC0DngHPgI8+4AfJxIzZAH9iKovgM+AZ8Az4iAAewqHjutcy4BnwDPgKADzA3APXvYMBz4BnwPMangHPgGfAVxzgTf2QlCFqGfAMeAZ85PfhxSYyH162e++YLeEGA54B36KAty3xZfq4cHEWA76Jw25sjHiVkIULsiRm0LfLwYdcgP8B1ziUAV8xgCeZMUoI+PTMxIcPM+Cb3HOCVouBmZIr803SFJsUCXii0/NNy8WALwjwnzmWvlkLA57oAEw81S0KeGiztxnwTZ7fFBqueX2O+95v58iomvS29l7KcZ2LUwlRz4BXBvgtMqTDprJZB4QA8H93LBFrYcDrX2PW6cyAl+a8KTbKkUp5jauZLT1rtVlcp6OsYJs1Aywm3B4MeFWAFyNkjvw0GXDFzJYHvHg4qWC8iwU8lVTanQHvplyqwfVyZbxZDCtgLx/XqgddmONacyAAIxjwagAPPmycTA+2RozF40lDdGthwH8OrA0pDeBNtzZ6hiT94hoGfKtWzoQ45U1/L8c9XwRIc64HHTNei2sdnDMrqyUsBrwqwIuBSa/6TbprfJxUwOuc4+4dvHo1o3VoioMx8dQEDnhopeeyMPR1mKj9KxnwtqlVg0dXSJM9y7FYcS4EJ2cWVZkuawwoW1mr3yEgZ6R81m5nwOe8Vk83yWj6a6zAWJyRGhdrEyTgU1ac+vN0Rie5KZ4C1QcOeHT2pCwMXYovnQlBbluJgEe/68CfI3wURqDMLNvncd0Bsr5a9qSYlr45QF/FgC9SwxsiDkv2oizXeRkT+5ZUBSdYs95VHL9lidLcP5+qPQUB3rG0Udkegmp5Qegnghm1lQR4CEAMA/QXcl7muBdpiKswUL41BARwfQjguW7du+zXvjJlxDsx4IsDvExPdkxWfpviH44RH1BICfA8Jvr9ZD3CTDtjtm2IbSBLNYEBHjfpJit5ZsnGKp4BWVS2qdwBD5O7BmDvj/6ehmt87qe4oV3AXi6uv5OPyYSqpc6Elu/CgC8c8E34/U3W4hamuA2g710AkNuAevuY6HvZVHiSnIUZC59inW8KA3LYNhDAO2S2UsXP7IxdDXo3SetKUwzLG0SJWBt0Yu8MVVmDAPwTmCn70XZaXs9pxDEgrgn/pI+ihqQVfs2n5NEf+mCIHqRVcvgG3Np1oNuxvpsEIahjwBcG+KSXZvzZnDUJTXEXwDvcp1x3AkB3IgvPjZ2wYvW5+yUuzDHmqz0lIs6C9T0c12ytFPBUxA8X3zpLUMAf1vS2Vxr3TjCQLvonZ6I+OjVRH76W6H96H7Q/vnMSboK1k6CAlHkZlg5BAJ7AOhf3vQ10NNZGu6YsMbLpc0JrjnCf1xJj8J3DQNd7v8lmcq1jgl2FQS/I0UJrNQgLATLl416rvDW9eAy/OR2vD8LEu+0f+yNoabYHBZKA72cnvXP7b+RYrlUO4A3RjqwlCahs11zp8Y1ALA6EPG/RhM+bOKZowOckL5dJP4wjr/kWJoqcytAxxEA8x48+xvxnN/e+ix1xIl7vhTH+A9boeQhnoIMx3id7WNMfAn2aEfAucxNanXTe/eZT2FfLB/pBRistakKL5ftLZIbXFTlmtCDLRa+Sz/l9mudcS9/KiWxlHjXnySS7DgPcrUihpsKJV0ke+at172n8JdI8zcT3X2V/Gn1csyIAL01vCrF90+f4/iZ5uTiNvPwkP2/K3y9x/X38TPSYkI/2OTZrA7qWZcDaIvmMS6RcrMjmp/gv4OUMuAHevDUP0KuiIAGvmhol8y9J+qxr5sMsJNP+UR+aJyiqGMB7a3n9BF/LtfwJYBPnYzxrfEw864Nul1mOSzbWfwD82gAFGfa5ggGfVrumAM5zVIZBNgH9Ez7W8wz4IgEPXneWFYRWBcDLhx0j3tOntdEDdJOPLd/gAN8E9NeX8EGiAHiaAB+HdpgMgekYSCSWEaedgdtyeJJbEvDTZKRYJjrZyZKtt4DINDpzcFaOe/5PQbsXhuhnexpWNejfhrm+XR5LjA2lL2BhHia+WsB7W1N6F7lvOTegmXCteTwP97nJMcXQPAG/uzzHH7RGpHXRi3jG42xTGxRoJNbYWJWd0DrjfofKXYIgJ9xlsqAGOXi6+eQ5RauNzkQAaF+VRzxxrdayTPfoLFSwD8VJxLtRzgdcY74SWTbFItDVkJMh+S0xNDyHdiDk+akA5Zl8Oh8kTf3CzAxp0MirOQI0FTPDo9JRUewa5xP8/Zfjzdw74rojcf0+FBiRp/NF4Hdb43p741rH0ukyXGuOj31tf6a7Kb5Ieh7+yfh/Y+JFqxI1ymmPe1Ik3kG4/4N4lqUK+rQEmodiLW6mvPmwVCaif5uD+oBat6rA5p6ANLT1wOPtQTNBHxSg3JaAf3PAz5MwTtuCehSyjYbftPEsazpj4e5oFTvmjUnXOSno1OXJoB3pnAcsm+65tY6htcWPO+EifR1vu+1ydOw+Mg+yENUEI5PpCgpNpW0xvCbzhRyDnfB/fTEho02DZHCddrimhg51xX17OxBkXH83vHcB6BoI+myZxuvdNIxc7h2ecD+/Bc96tmNoCfzthd/FwaAWAwP6RUJAFWv7O6ZG23dnkn8Fz/pSdt6LR1y+Y1KF5bQnaBRVYkV/uuO9eMrU26pIrlE2wLdoe1TrQMeRwefx4N9x4NNNGfj7Cvj4sDsWhpiIsRngyp0h6hQ9Sy2ehZTZQFyfAoXIX3SPe9/MYw55cIF9EWQfWBMm1U/A+91tN4eDVkd9XHuP/we1ORweelCQKQAAACV0RVh0ZGF0ZTpjcmVhdGUAMjAyMS0wNi0wMlQwOToxODowNyswMDowMJGjhxAAAAAldEVYdGRhdGU6bW9kaWZ5ADIwMjEtMDYtMDJUMDk6MTg6MDcrMDA6MDDg/j+sAAAAAElFTkSuQmCC;" parent="1" vertex="1">
                    <mxGeometry x="520" y="430" width="29.54" height="30" as="geometry"/>
                </mxCell>
                <mxCell id="14" value="&lt;font color=&quot;#180101&quot;&gt;control plane&lt;br&gt;192.168.0.5&lt;br&gt;&lt;/font&gt;" style="text;html=1;strokeColor=none;fillColor=none;align=center;verticalAlign=middle;whiteSpace=wrap;rounded=0;" parent="1" vertex="1">
                    <mxGeometry x="184.89000000000001" y="460" width="90.22" height="30" as="geometry"/>
                </mxCell>
                <mxCell id="15" value="&lt;font color=&quot;#180101&quot;&gt;node&lt;br&gt;192.168.0.6&lt;br&gt;&lt;/font&gt;" style="text;html=1;strokeColor=none;fillColor=none;align=center;verticalAlign=middle;whiteSpace=wrap;rounded=0;" parent="1" vertex="1">
                    <mxGeometry x="364.89" y="460" width="90.22" height="30" as="geometry"/>
                </mxCell>
                <mxCell id="16" value="&lt;font color=&quot;#180101&quot;&gt;node&lt;br&gt;192.168.0.7&lt;br&gt;&lt;/font&gt;" style="text;html=1;strokeColor=none;fillColor=none;align=center;verticalAlign=middle;whiteSpace=wrap;rounded=0;" parent="1" vertex="1">
                    <mxGeometry x="545.12" y="460" width="90.22" height="30" as="geometry"/>
                </mxCell>
                <mxCell id="17" value="" style="sketch=0;html=1;dashed=0;whitespace=wrap;fillColor=#2875E2;strokeColor=#ffffff;points=[[0.005,0.63,0],[0.1,0.2,0],[0.9,0.2,0],[0.5,0,0],[0.995,0.63,0],[0.72,0.99,0],[0.5,1,0],[0.28,0.99,0]];verticalLabelPosition=bottom;align=center;verticalAlign=top;shape=mxgraph.kubernetes.icon;prIcon=c_m;fontColor=#180101;" parent="1" vertex="1">
                    <mxGeometry x="180.00000000000003" y="360" width="40.22" height="38" as="geometry"/>
                </mxCell>
                <mxCell id="18" value="" style="sketch=0;html=1;dashed=0;whitespace=wrap;fillColor=#2875E2;strokeColor=#ffffff;points=[[0.005,0.63,0],[0.1,0.2,0],[0.9,0.2,0],[0.5,0,0],[0.995,0.63,0],[0.72,0.99,0],[0.5,1,0],[0.28,0.99,0]];verticalLabelPosition=bottom;align=center;verticalAlign=top;shape=mxgraph.kubernetes.icon;prIcon=api;fontColor=#180101;" parent="1" vertex="1">
                    <mxGeometry x="180" y="280" width="40" height="44" as="geometry"/>
                </mxCell>
                <mxCell id="19" value="" style="sketch=0;html=1;dashed=0;whitespace=wrap;fillColor=#2875E2;strokeColor=#ffffff;points=[[0.005,0.63,0],[0.1,0.2,0],[0.9,0.2,0],[0.5,0,0],[0.995,0.63,0],[0.72,0.99,0],[0.5,1,0],[0.28,0.99,0]];verticalLabelPosition=bottom;align=center;verticalAlign=top;shape=mxgraph.kubernetes.icon;prIcon=etcd;fontColor=#180101;" parent="1" vertex="1">
                    <mxGeometry x="240" y="283.5" width="50" height="37" as="geometry"/>
                </mxCell>
                <mxCell id="20" value="" style="sketch=0;html=1;dashed=0;whitespace=wrap;fillColor=#2875E2;strokeColor=#ffffff;points=[[0.005,0.63,0],[0.1,0.2,0],[0.9,0.2,0],[0.5,0,0],[0.995,0.63,0],[0.72,0.99,0],[0.5,1,0],[0.28,0.99,0]];verticalLabelPosition=bottom;align=center;verticalAlign=top;shape=mxgraph.kubernetes.icon;prIcon=sched;fontColor=#180101;" parent="1" vertex="1">
                    <mxGeometry x="245" y="360" width="40" height="38" as="geometry"/>
                </mxCell>
                <mxCell id="22" value="" style="sketch=0;html=1;dashed=0;whitespace=wrap;fillColor=#2875E2;strokeColor=#ffffff;points=[[0.005,0.63,0],[0.1,0.2,0],[0.9,0.2,0],[0.5,0,0],[0.995,0.63,0],[0.72,0.99,0],[0.5,1,0],[0.28,0.99,0]];verticalLabelPosition=bottom;align=center;verticalAlign=top;shape=mxgraph.kubernetes.icon;prIcon=kubelet;fontColor=#180101;" parent="1" vertex="1">
                    <mxGeometry x="360" y="283.5" width="42.5" height="37" as="geometry"/>
                </mxCell>
                <mxCell id="23" value="" style="sketch=0;html=1;dashed=0;whitespace=wrap;fillColor=#2875E2;strokeColor=#ffffff;points=[[0.005,0.63,0],[0.1,0.2,0],[0.9,0.2,0],[0.5,0,0],[0.995,0.63,0],[0.72,0.99,0],[0.5,1,0],[0.28,0.99,0]];verticalLabelPosition=bottom;align=center;verticalAlign=top;shape=mxgraph.kubernetes.icon;prIcon=k_proxy;fontColor=#180101;" parent="1" vertex="1">
                    <mxGeometry x="425" y="283" width="36" height="38" as="geometry"/>
                </mxCell>
                <mxCell id="24" value="" style="sketch=0;html=1;dashed=0;whitespace=wrap;fillColor=#2875E2;strokeColor=#ffffff;points=[[0.005,0.63,0],[0.1,0.2,0],[0.9,0.2,0],[0.5,0,0],[0.995,0.63,0],[0.72,0.99,0],[0.5,1,0],[0.28,0.99,0]];verticalLabelPosition=bottom;align=center;verticalAlign=top;shape=mxgraph.kubernetes.icon;prIcon=kubelet;fontColor=#180101;" parent="1" vertex="1">
                    <mxGeometry x="540" y="283.5" width="42.5" height="37" as="geometry"/>
                </mxCell>
                <mxCell id="25" value="" style="sketch=0;html=1;dashed=0;whitespace=wrap;fillColor=#2875E2;strokeColor=#ffffff;points=[[0.005,0.63,0],[0.1,0.2,0],[0.9,0.2,0],[0.5,0,0],[0.995,0.63,0],[0.72,0.99,0],[0.5,1,0],[0.28,0.99,0]];verticalLabelPosition=bottom;align=center;verticalAlign=top;shape=mxgraph.kubernetes.icon;prIcon=k_proxy;fontColor=#180101;" parent="1" vertex="1">
                    <mxGeometry x="608" y="283" width="36" height="38" as="geometry"/>
                </mxCell>
                <mxCell id="29" value="" style="rounded=0;whiteSpace=wrap;html=1;fillColor=none;strokeColor=#1A1A1A;dashed=1;" vertex="1" parent="1">
                    <mxGeometry x="330" y="346.74" width="340" height="63.26" as="geometry"/>
                </mxCell>
                <mxCell id="28" value="" style="sketch=0;html=1;dashed=0;whitespace=wrap;fillColor=#2875E2;strokeColor=#ffffff;points=[[0.005,0.63,0],[0.1,0.2,0],[0.9,0.2,0],[0.5,0,0],[0.995,0.63,0],[0.72,0.99,0],[0.5,1,0],[0.28,0.99,0]];verticalLabelPosition=bottom;align=center;verticalAlign=top;shape=mxgraph.kubernetes.icon;prIcon=ds" vertex="1" parent="1">
                    <mxGeometry x="330" y="346.74" width="20" height="23.26" as="geometry"/>
                </mxCell>
                <mxCell id="26" value="" style="shape=image;verticalLabelPosition=bottom;labelBackgroundColor=default;verticalAlign=top;aspect=fixed;imageAspect=0;image=data:image/jpeg,/9j/4AAQSkZJRgABAQAAAQABAAD/2wCEAAkGBxAQDxUQEBAVEBIPDxUVFRgVFRYWFxUWFREWFhUTFhYYHSggGBolGxUVITEhJSkrLi4uGB81ODMsOSgtLysBCgoKDg0OGBAQGy0lICUtLS0vLSswLS8vLS0tLS0tLTIrKy0tLS0tKy0tLS0vKystLS0tLS0tLS0tLS0tLS0tLf/AABEIAL8BCAMBEQACEQEDEQH/xAAbAAEAAQUBAAAAAAAAAAAAAAAAAgMEBQYHAf/EAD4QAAIBAgIHAwkHAwQDAAAAAAABAgMRBDEFBiFBUWFxEoGRIiMyQlJiobHBBxMUQ3LR8DOCklOi0uFzssL/xAAaAQEAAwEBAQAAAAAAAAAAAAAAAgMEAQUG/8QAMhEBAAIBAwICCQUAAgMBAAAAAAECAwQRMRIhQVEFIjJhcZGx0fATgaHB4RTxQkSSI//aAAwDAQACEQMRAD8Ao47WHFVa8q/4irFubcVGckoK+yEUnZJKy577nvUwUisV2h5lslpnfdn9EfaNiqdo14xxEVm/QqdbryX0supnyaGk+z2W11No57t70FrZhMZZU6nYqP8ALqeTLu3S7mzBl0+THzHbzaaZq34Z0oWgAAAAAAAAAAAAAAAAAAAAAAAAAAAAAAAAAcI1o0c8NjKtJqy+8cofom+1C3RO3VM97BfrxxLzMlem8wxRare2Dktl0Drpi8LaLl9/TXqVG20vdnmu+65GbLpcd/dPuWUz3px3+LpGgNbcLjLRjL7uq/y52Uv7XlLu28kebl018ffmPNsxaml+3E+U/wBebPGdoAAAAAAAAAAAAAAAAAAAAAAAAAAAAAAADQvtW0T26UMXFbaL7E/0Tfkt9JbP72b9Dk2tNJ8WXU03jqcxPUYnqDiSCMpL5BCYieW36u69V8PaFe+IpcW/ORXKT9Lo/FGTNo6X717T/C7HqsmPtPrR/P8Av7/N0nRWlqGKh26M1Nb1lKL4Sjmjy8mK+OdrQ9LFmpljekr4rWgAAAAAAAAAAAAAAAAAAAAAAAAAAAAFDHYWFalOlUV4VYOMuklbxJVtNZiYcmN42lwTSWBnh686FT0qU3F81ukuTTT7z3sd4vWLQ8u9ZrMxKgiatJBGXqDiSCK6wOMqUJqpSm4SWTTt3c1yew5asWja0bwhtMT1VnafN0fVvXmFW1PFWpzyU1sg/wBXsP4dDzc+imPWx948vH/W7B6QiZ6cvafPwn7NyTuee9N6AAAAAAAAAAAAAAAAAAAAAAAAAAAABz37VNCXjHGwW2FoVbey35E+5u39y4HoaHLtPRP7Mmpp26oc4iemwykgikgikg5KSCKUXYIWrFo2ls+rWtdbDWg/OUl6jforjB7umXTMz5tNTL34n85dw6rJpp25r5fb7cOl6K0rRxUO3Rldb09kovhJbv5Y8jLitjna0Pcw56Zq9VJ/xela4AAAAAAAAAAAAAAAAAAAAAAAAAAClisPCrCVOa7UKkXGSe9NWaO1mazvDkxExtLhWn9EzweJnQlt7LvF+3B+jL6Pmme5iyRkrFoeVkpNLTErKLLlKaDj1BGUkEZSQcSQRmN+WT0XpCpSmp0puE48N64Nb1yZy1K5I6bQzb3wW66T+e90vVzWanil2J2p1rejulzg/pmueZ4+o0tsXeO8fnL3tHr6Z/Vntby8/gz5lbwAAAAAAAABgNYNbsLg32JSdSr/AKcLNr9Tyj37eTL8Wmvk7xwrtlrDS8X9pGKk/NUqVKPPtTl43S+BuroaRzMyotnt4LeGv2P9qm+tP9mS/wCFi96udReF/hPtGxK/qUaVRe72oPxbl8iNtBSeJn8+Tkau8cxDYdH6+4SpsqKdB+8u1Hxjd+KRmvockcd1tdZjnns2DCaToVv6VanU/TOLfhfYZrY719qJhorlpb2Zhc1KkYq8mori3ZEYiZ4SmYjli8VrLgqfpYiDtuheb6eRcurpctuK/wBfVnvrMFObR+3f6MXiNesMtkKdSpzsor4u/wADRX0fknmYhlv6VxRxEz+fngx9bXyo/Qw8Y/qm5fJIur6Nr42/hkv6Yt4Uj5/5ClS1px9X+nTi/wDx0py+rLJ0WCvtT85hRHpPV39isT8KzP8AcrynV0xUyTgucaUfhLaVzXRV57/P+lnX6Uvx2/8An+95ZHC4fSnr1qPer/8ArFfMovbSeFZ/PjMtOPH6T/8AK9f3/wAiGxGF7ABqn2hav/isP97Tjeth05K2c4etDm9l1zVt5q0ubottPEs+pxddd45hyCL3nrvL3VYu5JxNBFJBGUkHHqOIpJnUZjeNpX2Hq32rY009mxprJrgd5YslJpLfdWda+1ajiXaWUajyfBT4Pnv+fmanR7etj48ns6L0n1bY83PhPn8ff+fHcDzntAAAAAAANF1/1wdC+Fw0rVWvOTX5aa2Rj77W/cub2bdLp+r17cKMl532j8/Pz3cwu27t3bd23m282z1FEpxOq5K1aNOPam+ykRteKxvZXFZtO0PcJiYVFeEu0lnut1TFMlbxvWUMlLVnaV1EsUSmkdVWV8LhZVJKNODnJ5KMbvwRybRWN5lXFOqdqx3bRo/UjFTs6jjRXN9qX+MdnxMl9djrx3a6ejstva2j+fz5thweo+Gj/UlOq+vZj4R2/EyX9IZJ9mIhrp6LxR7UzP8AH0+7M4XQuFpehQgmt/ZTf+T2me2fJbm0tdNLhp7NYX6RS0AAAAAAcj+0PV78NX+/px8ziJN7MoVM3Ho9rXetx62lzddemeYeXqsXRbqjiWpJmpj3VYSuSiTdUR1xJBFJHHHqDidOTTujqu9YtG0sjBpq/EkwWjadpbXq1rO6VqNduVPKMs3Dk+Mfl0y8/U6Pq9anPk9XQ+k5x7Y8vHhPl8fd9PhxvcZJpNO6aumsmuJ5T6KJiY3h6HQAAAw2tmnI4LDSq7HUl5NOPGbWzuWb6F2DF+pfZDJbpjty4dUqynJzm3KU5OUm8227tvvPaiIjtDNw9R1CVSJ1VKw03hJ1Ka7Cu4yvbjstsM2qx2vWOnwTw3itu6Or2BqU+1Ka7PaSSW/ZvZHSYrU3myOqyVttEM5E2sMtk1X1WqYvy5N06Cfpb52zUL/PLqZdRqq4u0d5/OV2DS2y957R+cOl6N0bRw0OxRgoLfxlzk82zycmW2Sd7S9fHipjjasLsrWAAAAAAAAAC00ro6niaM6FVXhUVuaeakuadmuhOl5paLQjekXrNZcO0zouphK8qFX0oPY90ov0Zrk/g7rce1jvF6xaHh5KTS01lZElUqsKnElEnUrI6JIOJIIvUHF1g57ezxy6nYZs9O3UvUdZGwauawyw7VOpeVFvq4c48VxXhzyanSxk9avP1ejofSNsE9F+9fp8Pd7vl79/o1YzipQalGSumsmjx5iYnaX1FL1vWLVneJTOJAEKtWMIucmoxim23sSSV22+B2I3naHJnaN5cR1w0+8diXNXVKneNJP2b7ZNcZWv4Lcezgw/p128fFmmeqd5YSJejKogrlUidVSnE6qlUiFctg1S0A8ZW8q6o07Oo8r8IJ8X8F3FGpzxir25nhZgwfq278Ry61SpxhFRilGMUkktiSWxJI8SZmZ3l7MRERtCZx0AAAAAAAAAAAGua7atrG0LwSVeld03l2uNNvg/g7czRp836du/Es2pwfq17cw43ODi3FppxbTT2NNOzTW53PXeLLwISlGTWQ3R32VoVlv2Eosl1QrI6JIOJRdtvAIzG8bMnB3SfEk86Y2nZUQQZrV/Tk8NLsu8qUntjvXvR58t5m1GmjLG8ct+h19tNO096z4eXvh0DDYiFSCnCSlGSumjxrVms7Ty+rx5K5Kxak7xKo3ba9xFNyrX/W9YlvDYeXmYvy5r81p5L3E9+98lt9TTafo9a3P0ZrX6vg0g2OJROoSqRCqVSJ1XKcTqqVzhcPKpONOC7U5yUYri2zlrRWJmVc+UO0aD0XDC4eNGO3sq8n7U36Uv5uSW48HNlnJebS9rDjjHSKr8rWgAAAAAAAAAAAAANB+0TVbtp4zDx8uK89FetFL+ol7SWfFdNu7S59vUt+zztbpt/wD9K8+LmqPReS9OIgRlKMmshu5vMKscRxR3qOtVjWjxsS6od64ZPAzTjnk2vr9SUSx5tursukdUve0lm0jkzCMzC/0NrE8LPY3OnJ+VH/6XCXz+WXUY6ZY97Vo/SNtLbt3rPMf3Hv8Ar9MVrZrjicVeil9xRecU7ua9+W9cls43I4NNWnfmX0+PUV1FIvWe35y1U0rBBxOJ1CVSJ1VKogrlUijqm0xEby6F9nOg7XxdRbdsafylP6eJ5msz7+pC70dT9Wf1p44r/c/1H7t8PPeuAAAAAAAAAAAAAAAAOW6/6qfcSeKw8fMyd6kV+XJv0l7j+D5ZelptR1epbl4+t0vR69ePH3f40o2PNkCMvQjIcRl6cRlc4TJ9Qy6jmF0jjLKRxADiFWkpKzX/AEdidmjT6nJgt1Un7T8WOr4KUcvKXLPwJxaH0ul9KYc3a3qz7+P2lbok9KU0dVSqROq5VqcG8kcmYhlzZ6Yo3vLM6A0TLEV40o+s7yfsxXpP+b2jPmzdNd3lVvk1+aMVe1fH4ec/173YsPRjThGEFaMIpJcElZHjzMzO8vsaUrSsVrxCocSAAAAAAAAAAAAAAAAEZwUk4tJpqzT2pp5poE93JtdtU3hJOtRTeHk+rpN+q/d4Pue6/qafUfqRtPP1eFrNJ+lPVX2fp/jUzUwS9OIyBGXpxFdYRbH1DJqJ7wuUcZZSOIAAABCpSjLNJ/PxOxMw0YtXmxdqWmPp8lL8HDn4neqWuPS2o8dp/ZOOGit1+o6pV39Jai3jt8FVHGK1ptO8y6ZqPof7ih97NWqV0nzjD1Y/V9VwPM1GTqttHEPsfQ+j/Qw9dvat/EeDZDO9cAAAAAAAAAAAAAAAAAAEKtOM4uMoqUZJppq6aas01vR2J27w5MRMbS5TrnqfLCN1qCc8O3tWbpcnxhwlu38X6eDURf1bc/V4Wr0c4vWp7P0/xqRpedIEZenHF9h42igwZZ3tKsjiiXpxEAAAAAABndT9D/icReSvSpWlPg/Zh3teCZRqMnRXtzL1PRWj/wCRm3tHq17z/UOpnmPtgAAAAAAAAAAAAAAAAAAAAHkkmrNXTzA5zrdqK43r4KN45ypLNcXT4r3fDgb8Gq39W/z+7xtX6P23vi+X2+3yaC18Da8eUqULuwV3t013ZBB58poirkDgAAAAAEqcHKSjFXcmkks227JITOyVazaYrHMut6u6KWFw8afrPypvjJ59yyXQ8nLk67bvvNDpY02GKePj8WTK2wAAAAAAAAAAAAAAAAAAAAAAAa1rNqdQxl6kfM1/bS2S/XHf1z65GjFqLU7cww6rQ0zd47W8/u5jVwEqE5U5OMnCTi3B3js4Ox6GPNS/EvltZivjttPEeMcPUTefKRxEDgAAAAAG66gaFu/xdRbFdUk97ylPu2pd/BGPVZdvUj930voTQ/8AsXj4ff7N7ML6UAAAAAAAAAAAAAAAAAAAAAAAANc1w05+Hp/dU352ot3qR3y6vJeO4Mmqz9FemOZc4ZKHjypOJqpntHPdiy6THfjtLw01zVlgvo8leO4WRaJ4Z7Y7V5gOoAAO8ouaR1ZXDefBlNWdDyxtfs7Y0oWdSS4bop8X+7K82SMVd/HwenoPR/62TvxHP55ut0aUYRUIpRjFJJLJJKySPJmZmd5fY1rFYiI4TOOgAAAAAAAAAAAAAAAAAAAAAADG6d0vDC0u29s5bIR9p/st7OTOyrNljHXdzDGYidWcqk32pTd2/wCbjkPGvabTvK2kThVKDLIRlBlkISiyyEJeMshXMQi2WQrmtfJFlkOLrRWjqmJqxo0leUs3ujHfKXJC14pXqlPDhtmvFKuv6G0XTwtFUaa2LbJ75Secnz/6PJyZJvbeX1enwVwUilf+18QXAAAAAAAAAAAAAAAAAAAAAAACx0vpOnhqfbntb2Ris5Pgv3OWtEK8mSKRvLmulMfUxFR1Kju3kt0VuiuRVvu8nJebzvKxkThTKnIshGUGWQhKLLIQlFlkISiyyEJRZZCEq2AwVSvUjSpR7U5eCW+Te5LiSm0VjeXceO2S0UrHd1nVzQVPB0uzHypys6k98nwXCK3I83LlnJO76bS6WunptHPjP54MsVNQAAAAAAAAAAAAAAAAAAAAAAAxumdMU8NG8vKm15MVm+b4LmQveKq8mWKQ55pLHVK9R1Kju3lwivZityM/VMzvLzMl5tO8rKRZCqVORZCEoSLIQlTZOEJRZZCEosthCUWWQhK70Touriqn3dKN36zfowXGT/jZ214pG8p4sN81umn/AE6nq/oKlg6fZh5U5enNrbJ/SPBfW7MOTJN57votNpaYK7V58ZZUraQAAAAAAAAAAAAAAAAAAAAAABr2mtZY07wo2nPJy9WP/J/D5GfJniO1VGTNEdoaXiKspycpycpSe1vNmfeZ7yw2mZ7yt5E4VypyLYQlTkWQhKnIshCVNlkISiyyEJRZZCEs9q9qrWxTU5XpUfaa2yXuJ/N7OotlivxatPor5u89q+f2+7pOjdH0sPTVOjBRivFv2pPezLa02neXu4sVMVemkdl0RWAAAAAAAAAAAAAAAAAAAAAAFtjsfTox7VSVuCzb6IryZK0je0uTaI5ahpjT9SteMfN0+Czl+p/RfEw5NRa/aO0M18kz2YORXDPKnIthCVKRZCuVORbCEqciyEJU5FkISgyyEJXejNEV8S7Uabkr7ZPZFdZPZ3Zk94jlLHhvln1Y+zeNB6mUaNp17V6i3W8iL5L1ur8CFskzw9TBoKU737z/AA2krbwAAAAAAAAAAAAAAAAAAAAAC3xWNp0lec1HlvfRLaVZM1MftS5MsBpDWST2UY9le1La+5ZL4mDJr5ntSNveha/k16tUlJuUm5N5tu7Mm8zO8qJUJFkISpyLIVypSLYQlTkWwhKlIshXKMYOT7MU5N5JJtvuRbCO0z2hl8Dqni6u1wVKPGbs/wDFbfGxZC6mkyW8Nvi2fRmpmHpWlVvXl72yH+Cz72zu7Zj0WOve3f8APJsdOCilGKUUlZJKyXRHGuI27QkHQAAAAAAAAAAAAAAAAAAAAAC1xuGnNWjVlT6JfPP4lGbFe/s3mPz5/wAjB19Xard1UjK/G6b+Z51vR2TfeLRPx/JRmqzqaAxCygpdJL62I/8ACzR4fyhNZW09C4lflf7ofudjTZY8Pormkqb0Lif9L/dD9ycYMnl9EZx28nq1dxb/ACrdZw+jLYwZPJH9G/kqw1SxLzdOPWTfyRbGCx/x7yu6Opft1+6Mfq39C2MPnLsaTzlkcNqnhIelGVR+/L6RsiyKRCyulxxz3ZfDYWnSVqdOMF7sUvkTXVrWvEKwSAAAAAAAAAAAAAAAAAAAAAAAAD//2Q==;" parent="1" vertex="1">
                    <mxGeometry x="393.54999999999995" y="368.38" width="34.89" height="25.24" as="geometry"/>
                </mxCell>
                <mxCell id="27" value="" style="shape=image;verticalLabelPosition=bottom;labelBackgroundColor=default;verticalAlign=top;aspect=fixed;imageAspect=0;image=data:image/jpeg,/9j/4AAQSkZJRgABAQAAAQABAAD/2wCEAAkGBxAQDxUQEBAVEBIPDxUVFRgVFRYWFxUWFREWFhUTFhYYHSggGBolGxUVITEhJSkrLi4uGB81ODMsOSgtLysBCgoKDg0OGBAQGy0lICUtLS0vLSswLS8vLS0tLS0tLTIrKy0tLS0tKy0tLS0vKystLS0tLS0tLS0tLS0tLS0tLf/AABEIAL8BCAMBEQACEQEDEQH/xAAbAAEAAQUBAAAAAAAAAAAAAAAAAgMEBQYHAf/EAD4QAAIBAgIHAwkHAwQDAAAAAAABAgMRBDEFBiFBUWFxEoGRIiMyQlJiobHBBxMUQ3LR8DOCklOi0uFzssL/xAAaAQEAAwEBAQAAAAAAAAAAAAAAAgMEAQUG/8QAMhEBAAIBAwICCQUAAgMBAAAAAAECAwQRMRIhQVEFIjJhcZGx0fATgaHB4RTxQkSSI//aAAwDAQACEQMRAD8Ao47WHFVa8q/4irFubcVGckoK+yEUnZJKy577nvUwUisV2h5lslpnfdn9EfaNiqdo14xxEVm/QqdbryX0supnyaGk+z2W11No57t70FrZhMZZU6nYqP8ALqeTLu3S7mzBl0+THzHbzaaZq34Z0oWgAAAAAAAAAAAAAAAAAAAAAAAAAAAAAAAAAcI1o0c8NjKtJqy+8cofom+1C3RO3VM97BfrxxLzMlem8wxRare2Dktl0Drpi8LaLl9/TXqVG20vdnmu+65GbLpcd/dPuWUz3px3+LpGgNbcLjLRjL7uq/y52Uv7XlLu28kebl018ffmPNsxaml+3E+U/wBebPGdoAAAAAAAAAAAAAAAAAAAAAAAAAAAAAAADQvtW0T26UMXFbaL7E/0Tfkt9JbP72b9Dk2tNJ8WXU03jqcxPUYnqDiSCMpL5BCYieW36u69V8PaFe+IpcW/ORXKT9Lo/FGTNo6X717T/C7HqsmPtPrR/P8Av7/N0nRWlqGKh26M1Nb1lKL4Sjmjy8mK+OdrQ9LFmpljekr4rWgAAAAAAAAAAAAAAAAAAAAAAAAAAAAFDHYWFalOlUV4VYOMuklbxJVtNZiYcmN42lwTSWBnh686FT0qU3F81ukuTTT7z3sd4vWLQ8u9ZrMxKgiatJBGXqDiSCK6wOMqUJqpSm4SWTTt3c1yew5asWja0bwhtMT1VnafN0fVvXmFW1PFWpzyU1sg/wBXsP4dDzc+imPWx948vH/W7B6QiZ6cvafPwn7NyTuee9N6AAAAAAAAAAAAAAAAAAAAAAAAAAAABz37VNCXjHGwW2FoVbey35E+5u39y4HoaHLtPRP7Mmpp26oc4iemwykgikgikg5KSCKUXYIWrFo2ls+rWtdbDWg/OUl6jforjB7umXTMz5tNTL34n85dw6rJpp25r5fb7cOl6K0rRxUO3Rldb09kovhJbv5Y8jLitjna0Pcw56Zq9VJ/xela4AAAAAAAAAAAAAAAAAAAAAAAAAAClisPCrCVOa7UKkXGSe9NWaO1mazvDkxExtLhWn9EzweJnQlt7LvF+3B+jL6Pmme5iyRkrFoeVkpNLTErKLLlKaDj1BGUkEZSQcSQRmN+WT0XpCpSmp0puE48N64Nb1yZy1K5I6bQzb3wW66T+e90vVzWanil2J2p1rejulzg/pmueZ4+o0tsXeO8fnL3tHr6Z/Vntby8/gz5lbwAAAAAAAABgNYNbsLg32JSdSr/AKcLNr9Tyj37eTL8Wmvk7xwrtlrDS8X9pGKk/NUqVKPPtTl43S+BuroaRzMyotnt4LeGv2P9qm+tP9mS/wCFi96udReF/hPtGxK/qUaVRe72oPxbl8iNtBSeJn8+Tkau8cxDYdH6+4SpsqKdB+8u1Hxjd+KRmvockcd1tdZjnns2DCaToVv6VanU/TOLfhfYZrY719qJhorlpb2Zhc1KkYq8mori3ZEYiZ4SmYjli8VrLgqfpYiDtuheb6eRcurpctuK/wBfVnvrMFObR+3f6MXiNesMtkKdSpzsor4u/wADRX0fknmYhlv6VxRxEz+fngx9bXyo/Qw8Y/qm5fJIur6Nr42/hkv6Yt4Uj5/5ClS1px9X+nTi/wDx0py+rLJ0WCvtT85hRHpPV39isT8KzP8AcrynV0xUyTgucaUfhLaVzXRV57/P+lnX6Uvx2/8An+95ZHC4fSnr1qPer/8ArFfMovbSeFZ/PjMtOPH6T/8AK9f3/wAiGxGF7ABqn2hav/isP97Tjeth05K2c4etDm9l1zVt5q0ubottPEs+pxddd45hyCL3nrvL3VYu5JxNBFJBGUkHHqOIpJnUZjeNpX2Hq32rY009mxprJrgd5YslJpLfdWda+1ajiXaWUajyfBT4Pnv+fmanR7etj48ns6L0n1bY83PhPn8ff+fHcDzntAAAAAAANF1/1wdC+Fw0rVWvOTX5aa2Rj77W/cub2bdLp+r17cKMl532j8/Pz3cwu27t3bd23m282z1FEpxOq5K1aNOPam+ykRteKxvZXFZtO0PcJiYVFeEu0lnut1TFMlbxvWUMlLVnaV1EsUSmkdVWV8LhZVJKNODnJ5KMbvwRybRWN5lXFOqdqx3bRo/UjFTs6jjRXN9qX+MdnxMl9djrx3a6ejstva2j+fz5thweo+Gj/UlOq+vZj4R2/EyX9IZJ9mIhrp6LxR7UzP8AH0+7M4XQuFpehQgmt/ZTf+T2me2fJbm0tdNLhp7NYX6RS0AAAAAAcj+0PV78NX+/px8ziJN7MoVM3Ho9rXetx62lzddemeYeXqsXRbqjiWpJmpj3VYSuSiTdUR1xJBFJHHHqDidOTTujqu9YtG0sjBpq/EkwWjadpbXq1rO6VqNduVPKMs3Dk+Mfl0y8/U6Pq9anPk9XQ+k5x7Y8vHhPl8fd9PhxvcZJpNO6aumsmuJ5T6KJiY3h6HQAAAw2tmnI4LDSq7HUl5NOPGbWzuWb6F2DF+pfZDJbpjty4dUqynJzm3KU5OUm8227tvvPaiIjtDNw9R1CVSJ1VKw03hJ1Ka7Cu4yvbjstsM2qx2vWOnwTw3itu6Or2BqU+1Ka7PaSSW/ZvZHSYrU3myOqyVttEM5E2sMtk1X1WqYvy5N06Cfpb52zUL/PLqZdRqq4u0d5/OV2DS2y957R+cOl6N0bRw0OxRgoLfxlzk82zycmW2Sd7S9fHipjjasLsrWAAAAAAAAAC00ro6niaM6FVXhUVuaeakuadmuhOl5paLQjekXrNZcO0zouphK8qFX0oPY90ov0Zrk/g7rce1jvF6xaHh5KTS01lZElUqsKnElEnUrI6JIOJIIvUHF1g57ezxy6nYZs9O3UvUdZGwauawyw7VOpeVFvq4c48VxXhzyanSxk9avP1ejofSNsE9F+9fp8Pd7vl79/o1YzipQalGSumsmjx5iYnaX1FL1vWLVneJTOJAEKtWMIucmoxim23sSSV22+B2I3naHJnaN5cR1w0+8diXNXVKneNJP2b7ZNcZWv4Lcezgw/p128fFmmeqd5YSJejKogrlUidVSnE6qlUiFctg1S0A8ZW8q6o07Oo8r8IJ8X8F3FGpzxir25nhZgwfq278Ry61SpxhFRilGMUkktiSWxJI8SZmZ3l7MRERtCZx0AAAAAAAAAAAGua7atrG0LwSVeld03l2uNNvg/g7czRp836du/Es2pwfq17cw43ODi3FppxbTT2NNOzTW53PXeLLwISlGTWQ3R32VoVlv2Eosl1QrI6JIOJRdtvAIzG8bMnB3SfEk86Y2nZUQQZrV/Tk8NLsu8qUntjvXvR58t5m1GmjLG8ct+h19tNO096z4eXvh0DDYiFSCnCSlGSumjxrVms7Ty+rx5K5Kxak7xKo3ba9xFNyrX/W9YlvDYeXmYvy5r81p5L3E9+98lt9TTafo9a3P0ZrX6vg0g2OJROoSqRCqVSJ1XKcTqqVzhcPKpONOC7U5yUYri2zlrRWJmVc+UO0aD0XDC4eNGO3sq8n7U36Uv5uSW48HNlnJebS9rDjjHSKr8rWgAAAAAAAAAAAAANB+0TVbtp4zDx8uK89FetFL+ol7SWfFdNu7S59vUt+zztbpt/wD9K8+LmqPReS9OIgRlKMmshu5vMKscRxR3qOtVjWjxsS6od64ZPAzTjnk2vr9SUSx5tursukdUve0lm0jkzCMzC/0NrE8LPY3OnJ+VH/6XCXz+WXUY6ZY97Vo/SNtLbt3rPMf3Hv8Ar9MVrZrjicVeil9xRecU7ua9+W9cls43I4NNWnfmX0+PUV1FIvWe35y1U0rBBxOJ1CVSJ1VKogrlUijqm0xEby6F9nOg7XxdRbdsafylP6eJ5msz7+pC70dT9Wf1p44r/c/1H7t8PPeuAAAAAAAAAAAAAAAAOW6/6qfcSeKw8fMyd6kV+XJv0l7j+D5ZelptR1epbl4+t0vR69ePH3f40o2PNkCMvQjIcRl6cRlc4TJ9Qy6jmF0jjLKRxADiFWkpKzX/AEdidmjT6nJgt1Un7T8WOr4KUcvKXLPwJxaH0ul9KYc3a3qz7+P2lbok9KU0dVSqROq5VqcG8kcmYhlzZ6Yo3vLM6A0TLEV40o+s7yfsxXpP+b2jPmzdNd3lVvk1+aMVe1fH4ec/173YsPRjThGEFaMIpJcElZHjzMzO8vsaUrSsVrxCocSAAAAAAAAAAAAAAAAEZwUk4tJpqzT2pp5poE93JtdtU3hJOtRTeHk+rpN+q/d4Pue6/qafUfqRtPP1eFrNJ+lPVX2fp/jUzUwS9OIyBGXpxFdYRbH1DJqJ7wuUcZZSOIAAABCpSjLNJ/PxOxMw0YtXmxdqWmPp8lL8HDn4neqWuPS2o8dp/ZOOGit1+o6pV39Jai3jt8FVHGK1ptO8y6ZqPof7ih97NWqV0nzjD1Y/V9VwPM1GTqttHEPsfQ+j/Qw9dvat/EeDZDO9cAAAAAAAAAAAAAAAAAAEKtOM4uMoqUZJppq6aas01vR2J27w5MRMbS5TrnqfLCN1qCc8O3tWbpcnxhwlu38X6eDURf1bc/V4Wr0c4vWp7P0/xqRpedIEZenHF9h42igwZZ3tKsjiiXpxEAAAAAABndT9D/icReSvSpWlPg/Zh3teCZRqMnRXtzL1PRWj/wCRm3tHq17z/UOpnmPtgAAAAAAAAAAAAAAAAAAAAHkkmrNXTzA5zrdqK43r4KN45ypLNcXT4r3fDgb8Gq39W/z+7xtX6P23vi+X2+3yaC18Da8eUqULuwV3t013ZBB58poirkDgAAAAAEqcHKSjFXcmkks227JITOyVazaYrHMut6u6KWFw8afrPypvjJ59yyXQ8nLk67bvvNDpY02GKePj8WTK2wAAAAAAAAAAAAAAAAAAAAAAAa1rNqdQxl6kfM1/bS2S/XHf1z65GjFqLU7cww6rQ0zd47W8/u5jVwEqE5U5OMnCTi3B3js4Ox6GPNS/EvltZivjttPEeMcPUTefKRxEDgAAAAAG66gaFu/xdRbFdUk97ylPu2pd/BGPVZdvUj930voTQ/8AsXj4ff7N7ML6UAAAAAAAAAAAAAAAAAAAAAAAANc1w05+Hp/dU352ot3qR3y6vJeO4Mmqz9FemOZc4ZKHjypOJqpntHPdiy6THfjtLw01zVlgvo8leO4WRaJ4Z7Y7V5gOoAAO8ouaR1ZXDefBlNWdDyxtfs7Y0oWdSS4bop8X+7K82SMVd/HwenoPR/62TvxHP55ut0aUYRUIpRjFJJLJJKySPJmZmd5fY1rFYiI4TOOgAAAAAAAAAAAAAAAAAAAAAADG6d0vDC0u29s5bIR9p/st7OTOyrNljHXdzDGYidWcqk32pTd2/wCbjkPGvabTvK2kThVKDLIRlBlkISiyyEJeMshXMQi2WQrmtfJFlkOLrRWjqmJqxo0leUs3ujHfKXJC14pXqlPDhtmvFKuv6G0XTwtFUaa2LbJ75Secnz/6PJyZJvbeX1enwVwUilf+18QXAAAAAAAAAAAAAAAAAAAAAAACx0vpOnhqfbntb2Ris5Pgv3OWtEK8mSKRvLmulMfUxFR1Kju3kt0VuiuRVvu8nJebzvKxkThTKnIshGUGWQhKLLIQlFlkISiyyEJRZZCEq2AwVSvUjSpR7U5eCW+Te5LiSm0VjeXceO2S0UrHd1nVzQVPB0uzHypys6k98nwXCK3I83LlnJO76bS6WunptHPjP54MsVNQAAAAAAAAAAAAAAAAAAAAAAAxumdMU8NG8vKm15MVm+b4LmQveKq8mWKQ55pLHVK9R1Kju3lwivZityM/VMzvLzMl5tO8rKRZCqVORZCEoSLIQlTZOEJRZZCEosthCUWWQhK70Touriqn3dKN36zfowXGT/jZ214pG8p4sN81umn/AE6nq/oKlg6fZh5U5enNrbJ/SPBfW7MOTJN57votNpaYK7V58ZZUraQAAAAAAAAAAAAAAAAAAAAAABr2mtZY07wo2nPJy9WP/J/D5GfJniO1VGTNEdoaXiKspycpycpSe1vNmfeZ7yw2mZ7yt5E4VypyLYQlTkWQhKnIshCVNlkISiyyEJRZZCEs9q9qrWxTU5XpUfaa2yXuJ/N7OotlivxatPor5u89q+f2+7pOjdH0sPTVOjBRivFv2pPezLa02neXu4sVMVemkdl0RWAAAAAAAAAAAAAAAAAAAAAAFtjsfTox7VSVuCzb6IryZK0je0uTaI5ahpjT9SteMfN0+Czl+p/RfEw5NRa/aO0M18kz2YORXDPKnIthCVKRZCuVORbCEqciyEJU5FkISgyyEJXejNEV8S7Uabkr7ZPZFdZPZ3Zk94jlLHhvln1Y+zeNB6mUaNp17V6i3W8iL5L1ur8CFskzw9TBoKU737z/AA2krbwAAAAAAAAAAAAAAAAAAAAAC3xWNp0lec1HlvfRLaVZM1MftS5MsBpDWST2UY9le1La+5ZL4mDJr5ntSNveha/k16tUlJuUm5N5tu7Mm8zO8qJUJFkISpyLIVypSLYQlTkWwhKlIshXKMYOT7MU5N5JJtvuRbCO0z2hl8Dqni6u1wVKPGbs/wDFbfGxZC6mkyW8Nvi2fRmpmHpWlVvXl72yH+Cz72zu7Zj0WOve3f8APJsdOCilGKUUlZJKyXRHGuI27QkHQAAAAAAAAAAAAAAAAAAAAAC1xuGnNWjVlT6JfPP4lGbFe/s3mPz5/wAjB19Xard1UjK/G6b+Z51vR2TfeLRPx/JRmqzqaAxCygpdJL62I/8ACzR4fyhNZW09C4lflf7ofudjTZY8Pormkqb0Lif9L/dD9ycYMnl9EZx28nq1dxb/ACrdZw+jLYwZPJH9G/kqw1SxLzdOPWTfyRbGCx/x7yu6Opft1+6Mfq39C2MPnLsaTzlkcNqnhIelGVR+/L6RsiyKRCyulxxz3ZfDYWnSVqdOMF7sUvkTXVrWvEKwSAAAAAAAAAAAAAAAAAAAAAAAAD//2Q==;" parent="1" vertex="1">
                    <mxGeometry x="572.78" y="368.38" width="34.89" height="25.24" as="geometry"/>
                </mxCell>
                <mxCell id="31" value="&lt;font style=&quot;font-size: 7px;&quot;&gt;DaemonSet&lt;/font&gt;" style="text;html=1;strokeColor=none;fillColor=none;align=center;verticalAlign=middle;whiteSpace=wrap;rounded=0;dashed=1;fontColor=#000000;" vertex="1" parent="1">
                    <mxGeometry x="350" y="343.37" width="40" height="26.63" as="geometry"/>
                </mxCell>
            </root>
        </mxGraphModel>
    </diagram>
</mxfile>
